<svg width="85" height="80" viewBox="0 0 85 80" fill="none" xmlns="http://www.w3.org/2000/svg">
<path d="M79.1982 75.1027C79.1924 75.0631 79.1998 75.0243 79.1874 74.9847L78.04 71.1464V0.824742C78.04 0.369485 77.6705 0 77.2133 0H6.18185C5.72552 0 5.35516 0.369485 5.35516 0.824742V71.1456L4.20772 74.9847C4.19532 75.0252 4.20276 75.0647 4.19698 75.1052C4.19119 75.1439 4.17383 75.1794 4.17383 75.2206V79.1753C4.17383 79.6313 4.54418 80 5.00052 80H78.3963C78.8535 80 79.223 79.6313 79.223 79.1753V75.2206C79.223 75.1786 79.2048 75.1423 79.1982 75.1027ZM6.79856 72.0907H39.5073H43.8879H76.5983L77.2869 74.3959H6.1091L6.79856 72.0907ZM5.82638 76.0454H77.5688V78.3505H5.82638V76.0454ZM76.3875 70.4412H43.8871H42.5247V44.2771H43.8218V67.652C43.8218 68.108 44.1913 68.4767 44.6484 68.4767H73.5908C74.0479 68.4767 74.4175 68.108 74.4175 67.652V4.43959C74.4175 3.98433 74.0479 3.61485 73.5908 3.61485H44.6468C44.1896 3.61485 43.8201 3.98433 43.8201 4.43959C43.8201 4.44206 43.8218 4.44454 43.8218 4.44783V36.0627H42.5247V1.64948H76.3875V70.4412ZM10.6319 66.8264V5.26433H37.9209V66.8272L10.6319 66.8264ZM39.5742 37.7122H40.8713V42.6276H39.5742V37.7122ZM42.5247 37.7122H43.8218V42.6276H42.5247V37.7122ZM72.7641 5.26433V66.8272H45.4751V5.26433H72.7641ZM7.00854 1.64948H40.8713V36.0627H39.5742V4.43959C39.5742 3.98433 39.2039 3.61485 38.7476 3.61485H9.80605C9.34972 3.61485 8.97936 3.98433 8.97936 4.43959V67.652C8.97936 68.108 9.34972 68.4767 9.80605 68.4767H38.7492C39.2055 68.4767 39.5759 68.108 39.5759 67.652C39.5759 67.6503 39.5751 67.6495 39.5751 67.6478V44.2771H40.8713V70.4412H39.5073H7.00854V1.64948Z" fill="#003946"/>
<path d="M23.1845 17.7823C22.9415 17.6825 22.6637 17.7056 22.438 17.8442C22.0586 18.0776 18.7022 20.1806 17.9599 21.9885C17.5721 22.9345 17.4928 23.9489 17.7358 24.8454C17.9962 25.8079 18.622 26.5543 19.4504 26.8916C19.7778 27.0252 20.125 27.0928 20.4837 27.0928C21.909 27.0928 23.3052 26.0256 23.9575 24.4355C24.6982 22.6268 23.7822 18.7811 23.6748 18.3489C23.6111 18.0924 23.4292 17.8821 23.1845 17.7823ZM22.4265 23.8112C21.9569 24.9559 20.8756 25.6891 20.0754 25.365C19.6 25.1712 19.4049 24.687 19.3322 24.4157C19.185 23.8747 19.2429 23.2173 19.4901 22.6136C19.8017 21.854 21.1393 20.7357 22.314 19.906C22.5686 21.3188 22.7373 23.0507 22.4265 23.8112Z" fill="#003946"/>
<path d="M62.3293 19.1711C62.6558 19.3039 63.0014 19.3707 63.3593 19.3707C64.7854 19.3707 66.1816 18.3035 66.8339 16.715C67.5754 14.9088 66.6603 11.0606 66.5528 10.6276C66.49 10.3719 66.3073 10.1616 66.0626 10.061C65.8187 9.96119 65.541 9.98428 65.3161 10.1228C64.9358 10.3571 61.5803 12.4626 60.8388 14.2672C60.4511 15.2115 60.3717 16.2259 60.6147 17.1232C60.876 18.0865 61.5001 18.8329 62.3293 19.1711ZM62.369 14.8931C62.6815 14.1352 64.019 13.016 65.1938 12.1855C65.4484 13.5975 65.6162 15.3294 65.3037 16.0898C64.835 17.2338 63.7413 17.9628 62.9543 17.6437C62.4797 17.4507 62.2846 16.9649 62.2119 16.6936C62.0647 16.1517 62.1218 15.4952 62.369 14.8931Z" fill="#003946"/>
<path d="M51.3257 40.5295C51.6531 40.6639 52.0028 40.7324 52.3624 40.7324C53.7876 40.7324 55.1822 39.6644 55.8345 38.0743C56.5752 36.2639 55.6592 32.4182 55.5517 31.9852C55.4889 31.7287 55.3062 31.5192 55.0623 31.4186C54.8168 31.3188 54.5399 31.3419 54.315 31.4804C53.9356 31.7147 50.5809 33.8178 49.8385 35.6264C49.3797 36.7439 49.3549 37.9514 49.7699 38.9378C50.0832 39.6842 50.6371 40.2491 51.3257 40.5295ZM51.3687 36.2524C51.6804 35.492 53.0171 34.3736 54.191 33.5439C54.4465 34.9567 54.6151 36.6903 54.3034 37.4508C53.8347 38.5955 52.7584 39.3361 51.9515 39.0037C51.5903 38.8569 51.3943 38.5402 51.2935 38.3002C51.0504 37.7229 51.0794 36.9576 51.3687 36.2524Z" fill="#003946"/>
<path d="M21.5817 52.5551C21.337 52.4553 21.0609 52.4775 20.8352 52.6161C20.455 52.8495 17.0969 54.9518 16.3571 56.7588C15.8983 57.8771 15.8735 59.0845 16.2884 60.0718C16.6026 60.8173 17.1556 61.3831 17.8459 61.6635C18.1733 61.7971 18.5205 61.8639 18.8793 61.8639C20.3061 61.8639 21.7016 60.7967 22.3514 59.2074C23.0929 57.3988 22.1786 53.5538 22.072 53.1208C22.0075 52.866 21.8256 52.6549 21.5817 52.5551ZM20.8203 58.5831C20.3524 59.7278 19.2695 60.4627 18.4701 60.1361C18.1088 59.9893 17.9137 59.6726 17.8129 59.4326C17.5698 58.8553 17.5971 58.0891 17.8873 57.3831C18.1981 56.6243 19.5365 55.5068 20.7112 54.6771C20.965 56.0891 21.1328 57.8202 20.8203 58.5831Z" fill="#003946"/>
<path d="M51.3267 25.2858C51.6541 25.4194 52.0005 25.4862 52.3593 25.4862C53.7845 25.4862 55.1791 24.419 55.8322 22.8297C56.5729 21.021 55.6586 17.1761 55.5519 16.7431C55.4891 16.4866 55.3072 16.2771 55.0625 16.1765C54.8178 16.0759 54.5392 16.0998 54.316 16.2375C53.9349 16.4718 50.5777 18.5749 49.8379 20.3794C49.007 22.4099 49.6742 24.6103 51.3267 25.2858ZM51.3689 21.0054C51.6789 20.2483 53.0165 19.1307 54.192 18.3002C54.4466 19.7122 54.6145 21.4441 54.302 22.2054C53.8332 23.3493 52.7445 24.08 51.9534 23.7592C51.1581 23.4342 50.8902 22.1732 51.3689 21.0054Z" fill="#003946"/>
<path d="M33.5755 24.2762C33.3316 24.1756 33.0547 24.1987 32.8282 24.3373C32.4479 24.5715 29.0907 26.6762 28.35 28.4816C27.5167 30.5113 28.1847 32.7117 29.8389 33.3872C30.1662 33.5208 30.5126 33.5876 30.8714 33.5876C32.2974 33.5876 33.6937 32.5195 34.3451 30.9303C35.0867 29.1224 34.1715 25.275 34.0649 24.842C34.0012 24.5863 33.8194 24.376 33.5755 24.2762ZM32.8149 30.3059C32.3462 31.4498 31.2575 32.1822 30.4655 31.8606C29.6694 31.5348 29.4015 30.2738 29.881 29.1059C30.1919 28.348 31.5294 27.2296 32.705 26.3991C32.9588 27.8136 33.1266 29.5463 32.8149 30.3059Z" fill="#003946"/>
<path d="M17.9837 47.3369C19.4114 47.3369 20.8076 46.2681 21.4582 44.6788C22.1998 42.8718 21.2846 39.0252 21.178 38.5922C21.1143 38.3365 20.9325 38.1262 20.6886 38.0264C20.4439 37.9258 20.1669 37.9497 19.9413 38.0875C19.561 38.3209 16.2038 40.4248 15.4631 42.2343C14.6331 44.2598 15.3011 46.4594 16.9553 47.1373C17.2802 47.2701 17.6265 47.3369 17.9837 47.3369ZM16.9933 42.8594C17.3041 42.099 18.6425 40.9806 19.8173 40.1501C20.0719 41.5629 20.2397 43.2949 19.928 44.0553C19.5345 45.0161 18.7351 45.6875 17.9837 45.6875C17.8406 45.6875 17.7042 45.6611 17.5802 45.6108C16.7841 45.285 16.5163 44.0248 16.9933 42.8594Z" fill="#003946"/>
<path d="M62.3287 50.9972C62.6552 51.1299 63.0016 51.1976 63.3604 51.1976C64.7856 51.1976 66.1819 50.1303 66.835 48.5419C67.5757 46.7349 66.6605 42.8875 66.5531 42.4536C66.4902 42.1972 66.3084 41.9877 66.0637 41.887C65.8181 41.7881 65.5404 41.8095 65.3163 41.9489C64.9361 42.1823 61.5797 44.2887 60.8398 46.0932C60.3802 47.2099 60.3546 48.4149 60.7687 49.4013C61.0829 50.1493 61.6367 50.7151 62.3287 50.9972ZM62.37 46.72C62.6808 45.9613 64.0184 44.8429 65.1931 44.0124C65.4486 45.4252 65.6164 47.1572 65.3056 47.9159C64.8352 49.0598 63.7489 49.7914 62.9537 49.4697C62.5916 49.3221 62.3948 49.0046 62.294 48.7646C62.0517 48.1889 62.0798 47.4244 62.37 46.72Z" fill="#003946"/>
<path d="M33.5766 43.2297C33.3327 43.1307 33.0549 43.153 32.8293 43.2907C32.449 43.525 29.091 45.6297 28.3511 47.4334C27.5194 49.4631 28.1866 51.6627 29.8391 52.3373C30.1665 52.4718 30.5137 52.5394 30.8725 52.5394C32.2969 52.5394 33.6923 51.4722 34.3454 49.8821C35.0861 48.0742 34.1726 44.2285 34.066 43.7946C34.0023 43.5406 33.8213 43.3295 33.5766 43.2297ZM32.8152 49.2594C32.3456 50.4033 31.2643 51.1398 30.4658 50.8124C29.6705 50.4874 29.4026 49.2264 29.8805 48.0594C30.1913 47.3014 31.5297 46.1839 32.7044 45.3542C32.959 46.7662 33.1269 48.499 32.8152 49.2594Z" fill="#003946"/>
<path d="M51.3257 57.5868C51.6531 57.7213 52.0028 57.7897 52.3624 57.7897C53.7876 57.7897 55.1822 56.7217 55.8345 55.1316C56.5752 53.3213 55.6592 49.4755 55.5517 49.0425C55.4889 48.786 55.3062 48.5765 55.0623 48.4759C54.8168 48.3761 54.5399 48.3984 54.315 48.5378C53.9356 48.7712 50.5809 50.8742 49.8385 52.6829C49.3797 53.8004 49.3549 55.0079 49.7699 55.9942C50.0832 56.7415 50.6371 57.3064 51.3257 57.5868ZM51.3687 53.3097C51.6804 52.5493 53.0171 51.431 54.191 50.6013C54.4465 52.0149 54.6151 53.7477 54.3034 54.5081C53.8347 55.652 52.7584 56.391 51.9515 56.0611C51.5903 55.9143 51.3943 55.5967 51.2935 55.3576C51.0504 54.7802 51.0794 54.0149 51.3687 53.3097Z" fill="#003946"/>
<path d="M62.3261 34.6145C62.6534 34.7489 63.0031 34.8173 63.3627 34.8173C64.788 34.8173 66.1826 33.7493 66.8348 32.1592C67.5755 30.3489 66.6596 26.5023 66.5521 26.0701C66.4893 25.8136 66.3066 25.6042 66.0627 25.5035C65.8172 25.4029 65.5402 25.426 65.3154 25.5654C64.9359 25.7996 61.5812 27.9027 60.8397 29.7105C60.3801 30.8281 60.3544 32.0355 60.7694 33.0219C61.0836 33.7683 61.6366 34.3341 62.3261 34.6145ZM62.3699 30.3365C62.6816 29.5761 64.0183 28.4578 65.1922 27.6281C65.4476 29.0417 65.6163 30.7745 65.3046 31.5357C64.8359 32.6804 63.7579 33.4211 62.9527 33.0887C62.5914 32.9419 62.3955 32.6244 62.2947 32.3844C62.0516 31.807 62.0797 31.0417 62.3699 30.3365Z" fill="#003946"/>
</svg>
