<svg width="85" height="80" viewBox="0 0 85 80" fill="none" xmlns="http://www.w3.org/2000/svg">
<path d="M35.7052 18.6669C35.1933 18.1563 34.4239 18.2419 33.912 18.7526C33.4002 19.2633 33.486 20.0309 33.9979 20.5416C39.5491 25.8228 42.5381 32.8933 42.5381 40.5625C42.5381 48.0609 39.5495 55.0455 34.17 60.327C33.6581 60.8376 33.6581 61.6052 34.17 62.1159C34.4276 62.3729 34.7677 62.4553 35.1079 62.4553C35.4481 62.4553 35.7915 62.3696 36.0458 62.1159C41.8546 56.4064 45.1009 48.7403 45.1009 40.5592C45.1009 32.2107 41.7681 24.4587 35.7052 18.6669Z" fill="#003946"/>
<path d="M29.9857 24.5447C29.4738 24.034 28.7044 24.034 28.1925 24.5447C27.6806 25.0553 27.6806 25.823 28.1925 26.3336C32.0364 29.9972 34.1697 35.1068 34.1697 40.3916C34.1697 45.5872 32.119 50.5294 28.3642 54.1924C27.8523 54.703 27.8523 55.4706 28.3642 55.9813C28.6218 56.2383 28.9619 56.3207 29.3021 56.3207C29.6422 56.3207 29.9857 56.235 30.24 55.9813C34.424 51.8071 36.7291 46.2686 36.7291 40.3057C36.815 34.5105 34.3382 28.7196 29.9857 24.5447Z" fill="#003946"/>
<path d="M40.1464 66.3719C39.6345 66.8826 39.6345 67.6502 40.1464 68.1609C40.404 68.4179 40.7441 68.5859 41.0843 68.5859C41.4244 68.5859 41.7679 68.5002 41.9396 68.2465C49.4557 60.9194 53.6399 51.1211 53.6399 40.559C53.6399 29.8249 49.37 19.9419 41.5997 12.5325C41.0879 12.0218 40.3184 12.1075 39.8065 12.6181C39.2947 13.1288 39.3805 13.8964 39.8924 14.4071C47.1509 21.3092 51.0771 30.593 51.0771 40.563C50.9912 50.3575 47.1473 59.5591 40.146 66.373L40.1464 66.3719Z" fill="#003946"/>
<path d="M81.991 0.859719C81.7334 0.60274 81.3074 0.520381 80.9673 0.520381L74.5641 1.37366C74.4749 1.20235 74.389 1.03102 74.2173 0.859702C73.9597 0.602723 73.5337 0.520364 73.1936 0.520364L66.7904 1.37364C66.7045 1.11666 66.6187 0.94864 66.4502 0.777326C66.1926 0.520347 65.7667 0.437988 65.4265 0.437988L40.5735 4.01262C39.9757 4.09828 39.4639 4.69459 39.4639 5.29089V9.8901C39.4639 10.5721 40.0616 11.1684 40.7452 11.1684C41.4287 11.1684 42.0264 10.5721 42.0264 9.8901V6.39787L64.3137 3.24495V76.0845L42.0264 73.0172V71.1426C42.0264 70.4606 41.4287 69.8643 40.7452 69.8643C40.0616 69.8676 39.4639 70.4639 39.4639 71.1459V74.1275C39.4639 74.7238 39.9757 75.3202 40.5735 75.4058L65.424 78.898H65.5957C65.9359 78.898 66.1934 78.8124 66.451 78.5587C66.6227 78.3874 66.7911 78.2193 66.7911 77.9624L73.1944 78.898H73.3661C73.7062 78.898 73.9638 78.8124 74.2214 78.5587C74.3931 78.3874 74.5615 78.2194 74.5615 77.9624L80.9648 78.8981H81.1365C81.4766 78.8981 81.7342 78.8124 81.9918 78.5587C82.2494 78.3017 82.4178 77.9624 82.4178 77.623V1.80205C82.4178 1.45612 82.2453 1.11671 81.991 0.859719ZM72.0837 76.1704L66.8759 75.4028V4.01226L72.0837 3.33028V76.1704ZM79.8541 76.1704L74.6463 75.4028V4.01226L79.8541 3.33028V76.1704Z" fill="#003946"/>
<path d="M23.4111 26.5048C23.2393 26.5048 23.0709 26.5048 22.8992 26.5904L10.9444 32.2143L3.51078 32.211C2.8272 32.211 2.22949 32.8073 2.22949 33.4893V47.6333C2.22949 48.3152 2.82722 48.9115 3.51078 48.9115H10.9411L22.8959 53.939C23.0676 54.0247 23.236 54.0247 23.4078 54.0247C24.6891 54.0247 25.541 54.0247 25.541 40.224C25.6302 26.505 24.6891 26.5048 23.4111 26.5048ZM22.6416 51.0396L11.7106 46.4404C11.5389 46.3547 11.3704 46.3547 11.1987 46.3547H4.79219V34.7679H11.1954C11.3671 34.7679 11.5356 34.7679 11.7073 34.6823L22.5521 29.5691C23.1531 33.661 23.1535 46.9507 22.6416 51.0396Z" fill="#003946"/>
</svg>
