<svg width="53" height="50" viewBox="0 0 53 50" fill="none" xmlns="http://www.w3.org/2000/svg">
<mask id="path-1-inside-1_2_13298" fill="white">
<path fill-rule="evenodd" clip-rule="evenodd" d="M34.5293 14.5347C29.4366 18.3018 24.8338 19.6392 20.7162 18.5488C16.5817 17.4543 13.0192 13.9236 10.0243 7.95661C9.89981 7.70965 9.8787 7.43549 9.94624 7.18435C10.0138 6.9353 10.17 6.70927 10.4042 6.55439C12.6793 5.05797 14.8342 3.95712 16.8667 3.25183C16.8899 3.24136 16.9131 3.23299 16.9384 3.22671C19.8805 2.21587 22.5694 2.03376 25.0028 2.68258C29.15 3.78762 32.4848 7.27432 35.0004 13.1425C35.0089 13.1613 35.0152 13.1801 35.0237 13.199C35.4352 13.3957 35.8404 13.6092 36.2351 13.8331C35.0637 11.194 34.8569 8.82279 35.6167 6.71753C35.7138 6.45174 35.8257 6.19012 35.9523 5.93273C35.9607 5.91598 35.9692 5.89715 35.9776 5.8804C37.1722 3.51336 39.6816 1.57536 43.5061 0.0683415C43.734 -0.0216523 43.9767 -0.0195574 44.1941 0.0557846C44.4136 0.13322 44.6035 0.286001 44.7196 0.499469C46.9272 4.48637 47.5329 7.85563 46.5326 10.6058C45.6145 13.134 43.371 15.0782 39.8064 16.4387C41.0158 17.55 42.0816 18.8099 42.9744 20.1912C44.9245 23.207 46.0578 26.7898 46.0578 30.6345C46.0578 35.9818 43.8713 40.8249 40.3383 44.3283C36.8052 47.8339 31.9216 50 26.5289 50C21.1365 50 16.2525 47.8318 12.7195 44.3283C9.18441 40.8248 7 35.982 7 30.6345C7 29.8141 7.05276 29.0062 7.15196 28.211C7.25326 27.401 7.40733 26.6057 7.60572 25.8314C7.7028 25.4526 8.09114 25.2224 8.47316 25.3186C8.85516 25.4149 9.08731 25.8 8.99024 26.1788C8.80451 26.8967 8.6631 27.6333 8.57024 28.3826C8.47738 29.1193 8.42884 29.8706 8.42884 30.6345C8.42884 35.5904 10.4549 40.0775 13.7305 43.3259C17.006 46.5743 21.5312 48.5832 26.5289 48.5832C31.5266 48.5832 36.0516 46.574 39.3274 43.3259C42.6032 40.0778 44.629 35.5904 44.629 30.6345C44.629 27.0683 43.5822 23.7472 41.7756 20.9553C40.7415 19.3563 39.4583 17.9311 37.9809 16.734C37.886 16.6816 37.7994 16.6126 37.7256 16.5309C36.7379 15.7629 35.6678 15.0911 34.5302 14.5343L34.5293 14.5347ZM22.1847 22.3141L21.6043 21.3179C21.4059 20.981 20.9712 20.8638 20.6293 21.0605C20.2895 21.2572 20.1713 21.6884 20.3697 22.0274L20.95 23.0236C21.1484 23.3606 21.5832 23.4778 21.9251 23.2811C22.2649 23.0843 22.381 22.6511 22.1847 22.3141ZM18.0207 25.9243L17.016 25.3488C16.6763 25.1542 16.2415 25.2714 16.0452 25.6083C15.8489 25.9453 15.9671 26.3764 16.3069 26.5711L17.3115 27.1466C17.6513 27.3412 18.0861 27.224 18.2824 26.8871C18.4787 26.5501 18.3605 26.119 18.0207 25.9243ZM16.2373 31.1146H15.0786C14.6861 31.1146 14.3674 31.4307 14.3674 31.8199C14.3674 32.2092 14.6861 32.5252 15.0786 32.5252H16.2373C16.6298 32.5252 16.9485 32.2092 16.9485 31.8199C16.9485 31.4307 16.6298 31.1146 16.2373 31.1146ZM37.5556 32.5273H38.7143C39.1068 32.5273 39.4255 32.2113 39.4255 31.822C39.4255 31.4328 39.1068 31.1167 38.7143 31.1167H37.5556C37.1631 31.1167 36.8444 31.4328 36.8444 31.822C36.8444 32.2113 37.1631 32.5273 37.5556 32.5273ZM36.4835 27.1487L37.4881 26.5732C37.8279 26.3785 37.9461 25.9474 37.7498 25.6104C37.5535 25.2735 37.1187 25.1563 36.7789 25.3509L35.7743 25.9264C35.4345 26.1211 35.3163 26.5522 35.5126 26.8892C35.7068 27.2261 36.1416 27.3433 36.4835 27.1487ZM32.8428 23.0195L33.4232 22.0233C33.6195 21.6863 33.5013 21.2552 33.1615 21.0605C32.8217 20.8659 32.3869 20.9831 32.1906 21.3201L31.6103 22.3163C31.414 22.6532 31.5322 23.0844 31.872 23.279C32.2118 23.4736 32.6486 23.3564 32.8428 23.0195ZM27.6108 21.251V20.1C27.6108 19.7086 27.2921 19.3905 26.8954 19.3905C26.5007 19.3905 26.1799 19.7086 26.1799 20.1V21.251C26.1799 21.6424 26.5007 21.9605 26.8954 21.9605C27.2921 21.9605 27.6108 21.6424 27.6108 21.251ZM29.4765 45.1808C29.8015 45.095 30.0949 44.9568 30.3418 44.7789C30.8315 44.4252 31.1354 43.9167 31.1354 43.3432V43.1779C31.4457 43.1005 31.7137 42.9121 31.9184 42.6463C32.1485 42.347 32.2899 41.9473 32.2899 41.5161V41.4722C32.2899 41.0411 32.1485 40.6392 31.9184 40.342C31.72 40.0846 31.4583 39.8983 31.1565 39.8167C31.186 39.7079 31.2261 39.6053 31.2789 39.5112C31.395 39.2977 31.5702 39.1114 31.8002 38.9629C33.037 38.1613 34.0606 37.0583 34.7676 35.7587C35.4493 34.5072 35.8377 33.0735 35.8377 31.5541C35.8377 29.1054 34.8372 26.8891 33.2185 25.2861C31.5997 23.6809 29.3647 22.6888 26.8976 22.6888C24.4283 22.6888 22.1932 23.6809 20.5767 25.2861C18.9579 26.8892 17.9575 29.1056 17.9575 31.5541C17.9575 33.0735 18.3437 34.505 19.0276 35.7587C19.7346 37.0563 20.7582 38.1592 21.995 38.9629C22.2229 39.1115 22.4002 39.2977 22.5163 39.5112C22.569 39.6074 22.6091 39.71 22.6387 39.8167C22.3369 39.8983 22.0751 40.0846 21.8767 40.342C21.6467 40.6413 21.5053 41.0411 21.5053 41.4722V41.5161C21.5053 41.9473 21.6467 42.3491 21.8767 42.6463C22.0878 42.9205 22.3706 43.113 22.6935 43.1863V43.3432C22.6935 43.9187 22.9974 44.4252 23.4871 44.7789C23.7319 44.9568 24.0274 45.095 24.3524 45.1808C24.4495 45.6433 24.6838 46.0577 25.0088 46.3821C25.4456 46.8153 26.0472 47.0832 26.7119 47.0832H27.1172C27.782 47.0832 28.3835 46.8153 28.8203 46.3821C29.1475 46.0577 29.3795 45.6433 29.4765 45.1808ZM25.9287 45.277C25.9562 45.3126 25.9857 45.3482 26.0195 45.3796C26.1968 45.5554 26.4437 45.6663 26.7117 45.6663H27.1169C27.3871 45.6663 27.6319 45.5575 27.8091 45.3796C27.8408 45.3482 27.8725 45.3126 27.8999 45.277H25.9287ZM24.1221 43.2176V43.3432C24.1221 43.4437 24.2002 43.5483 24.3226 43.6404C24.5125 43.7764 24.7869 43.8622 25.1014 43.8622H28.723C29.0396 43.8622 29.314 43.7764 29.5018 43.6404C29.6263 43.5504 29.7044 43.4437 29.7044 43.3432V43.2176H24.1221ZM24.0862 39.7707H29.7064C29.7591 39.44 29.8646 39.1282 30.0208 38.8394C30.2509 38.4166 30.5886 38.0546 31.0148 37.7762C32.0553 37.1002 32.9164 36.1751 33.5074 35.0869C34.0793 34.0383 34.4044 32.8329 34.4044 31.552C34.4044 29.4947 33.5644 27.6321 32.2052 26.2843C30.8461 24.9365 28.9677 24.1035 26.8952 24.1035C24.8205 24.1035 22.9443 24.9365 21.5851 26.2843C20.2259 27.6321 19.386 29.4947 19.386 31.552C19.386 32.8328 19.711 34.0362 20.2829 35.0869C20.876 36.1751 21.735 37.1002 22.7755 37.7762C23.2039 38.0545 23.5395 38.4166 23.7717 38.8394C23.9279 39.1282 24.0335 39.44 24.0862 39.7707ZM30.8102 41.1875H30.7996L30.7912 41.1938C30.8038 41.1896 30.8292 41.1875 30.8102 41.1875ZM30.7996 41.1875H22.9929L23.0014 41.1938C23.0056 41.1959 23.0098 41.198 23.0077 41.2001C22.9613 41.2608 22.9317 41.3571 22.9317 41.4722V41.5161C22.9317 41.6312 22.9613 41.7275 23.0077 41.7882C23.0098 41.7903 23.0056 41.7924 23.0014 41.7945L22.9929 41.8007H30.7996L30.7912 41.7945C30.7848 41.7924 30.7827 41.7903 30.7848 41.7882C30.8313 41.7275 30.8608 41.6312 30.8608 41.5161V41.4722C30.8608 41.3571 30.8313 41.2608 30.7848 41.2001C30.7827 41.198 30.787 41.1959 30.7912 41.1938L30.7996 41.1875ZM22.9929 41.1875H22.9824C22.9655 41.1875 22.9887 41.1896 23.0014 41.1938L22.9929 41.1875ZM30.8104 41.8007C30.8273 41.8007 30.8038 41.7986 30.7912 41.7945L30.7996 41.8007L30.8104 41.8007ZM22.9826 41.8007L22.9929 41.8007L23.0014 41.7945C22.9887 41.7986 22.9658 41.8007 22.9826 41.8007ZM29.5505 27.2197C29.6053 27.1192 29.637 27.0041 29.637 26.8827C29.637 26.4914 29.3183 26.1733 28.9215 26.1733H26.6991V26.1774C26.448 26.1774 26.2032 26.3114 26.0745 26.5458L22.9657 32.1714C22.9023 32.2802 22.8686 32.4079 22.8707 32.5418C22.8812 32.9311 23.2084 33.2388 23.601 33.2283L24.9411 33.1885L23.888 36.5496H23.8901C23.812 36.8029 23.8817 37.0896 24.0927 37.28C24.384 37.5416 24.8335 37.5186 25.0974 37.2298L30.7218 31.0641C30.8463 30.9365 30.9202 30.7628 30.9202 30.5723C30.9181 30.183 30.5994 29.867 30.2047 29.8691L28.2377 29.8838L29.5505 27.2197ZM26.4543 30.2899L27.7776 27.5922H27.117L24.8017 31.7821L25.8654 31.7507C25.952 31.7444 26.0385 31.7549 26.125 31.78C26.5007 31.8951 26.7117 32.2907 26.5957 32.6632L26.2052 33.9126L28.5944 31.2944L27.1571 31.3049C27.0325 31.3154 26.9017 31.2944 26.7814 31.2358C26.4289 31.0642 26.2812 30.6415 26.4543 30.2899ZM40.5084 12.3142C40.5042 12.3268 40.5 12.3393 40.4958 12.3519L39.5228 15.0328C42.5514 13.8357 44.4424 12.2033 45.1937 10.1355C45.5103 9.267 45.6285 8.31269 45.5546 7.27039L41.7958 8.76263L40.5084 12.3142ZM39.0543 12.1531L36.739 7.94847C36.3211 9.85507 36.8023 12.0568 38.1826 14.5578L39.0543 12.1531ZM37.4102 6.22205L39.698 10.3785L40.5527 8.02193C40.5591 7.99681 40.5696 7.97379 40.5802 7.94868L42.7646 1.92552C40.1454 3.12892 38.3599 4.56035 37.4102 6.22205ZM42.4416 6.98387L45.3394 5.83281C45.103 4.76754 44.6915 3.62484 44.1005 2.40472L42.4416 6.98387ZM28.2589 12.7831L21.4123 17.2597C24.7871 18.0257 28.5988 16.9395 32.8406 13.9991L28.2589 12.7831ZM19.6926 16.6946L26.4187 12.2955L20.8915 10.8263L15.6427 13.7647C16.9237 15.0999 18.2722 16.0772 19.6926 16.6946ZM26.7904 10.9287L23.1835 3.78359C21.6407 3.61407 19.9819 3.79196 18.2006 4.31308L21.2651 9.46363L26.7904 10.9287ZM24.9564 4.14363L28.6266 11.4162L33.2086 12.6342C31.0157 7.98389 28.2655 5.15249 24.9564 4.14363ZM14.6865 12.6828L18.9308 10.3053L11.8816 8.43217C12.7722 10.0709 13.7072 11.4877 14.6865 12.6828ZM19.298 8.93863L16.8203 4.77595C15.3703 5.32426 13.8466 6.08816 12.2489 7.06552L19.298 8.93863Z"/>
</mask>
<path fill-rule="evenodd" clip-rule="evenodd" d="M34.5293 14.5347C29.4366 18.3018 24.8338 19.6392 20.7162 18.5488C16.5817 17.4543 13.0192 13.9236 10.0243 7.95661C9.89981 7.70965 9.8787 7.43549 9.94624 7.18435C10.0138 6.9353 10.17 6.70927 10.4042 6.55439C12.6793 5.05797 14.8342 3.95712 16.8667 3.25183C16.8899 3.24136 16.9131 3.23299 16.9384 3.22671C19.8805 2.21587 22.5694 2.03376 25.0028 2.68258C29.15 3.78762 32.4848 7.27432 35.0004 13.1425C35.0089 13.1613 35.0152 13.1801 35.0237 13.199C35.4352 13.3957 35.8404 13.6092 36.2351 13.8331C35.0637 11.194 34.8569 8.82279 35.6167 6.71753C35.7138 6.45174 35.8257 6.19012 35.9523 5.93273C35.9607 5.91598 35.9692 5.89715 35.9776 5.8804C37.1722 3.51336 39.6816 1.57536 43.5061 0.0683415C43.734 -0.0216523 43.9767 -0.0195574 44.1941 0.0557846C44.4136 0.13322 44.6035 0.286001 44.7196 0.499469C46.9272 4.48637 47.5329 7.85563 46.5326 10.6058C45.6145 13.134 43.371 15.0782 39.8064 16.4387C41.0158 17.55 42.0816 18.8099 42.9744 20.1912C44.9245 23.207 46.0578 26.7898 46.0578 30.6345C46.0578 35.9818 43.8713 40.8249 40.3383 44.3283C36.8052 47.8339 31.9216 50 26.5289 50C21.1365 50 16.2525 47.8318 12.7195 44.3283C9.18441 40.8248 7 35.982 7 30.6345C7 29.8141 7.05276 29.0062 7.15196 28.211C7.25326 27.401 7.40733 26.6057 7.60572 25.8314C7.7028 25.4526 8.09114 25.2224 8.47316 25.3186C8.85516 25.4149 9.08731 25.8 8.99024 26.1788C8.80451 26.8967 8.6631 27.6333 8.57024 28.3826C8.47738 29.1193 8.42884 29.8706 8.42884 30.6345C8.42884 35.5904 10.4549 40.0775 13.7305 43.3259C17.006 46.5743 21.5312 48.5832 26.5289 48.5832C31.5266 48.5832 36.0516 46.574 39.3274 43.3259C42.6032 40.0778 44.629 35.5904 44.629 30.6345C44.629 27.0683 43.5822 23.7472 41.7756 20.9553C40.7415 19.3563 39.4583 17.9311 37.9809 16.734C37.886 16.6816 37.7994 16.6126 37.7256 16.5309C36.7379 15.7629 35.6678 15.0911 34.5302 14.5343L34.5293 14.5347ZM22.1847 22.3141L21.6043 21.3179C21.4059 20.981 20.9712 20.8638 20.6293 21.0605C20.2895 21.2572 20.1713 21.6884 20.3697 22.0274L20.95 23.0236C21.1484 23.3606 21.5832 23.4778 21.9251 23.2811C22.2649 23.0843 22.381 22.6511 22.1847 22.3141ZM18.0207 25.9243L17.016 25.3488C16.6763 25.1542 16.2415 25.2714 16.0452 25.6083C15.8489 25.9453 15.9671 26.3764 16.3069 26.5711L17.3115 27.1466C17.6513 27.3412 18.0861 27.224 18.2824 26.8871C18.4787 26.5501 18.3605 26.119 18.0207 25.9243ZM16.2373 31.1146H15.0786C14.6861 31.1146 14.3674 31.4307 14.3674 31.8199C14.3674 32.2092 14.6861 32.5252 15.0786 32.5252H16.2373C16.6298 32.5252 16.9485 32.2092 16.9485 31.8199C16.9485 31.4307 16.6298 31.1146 16.2373 31.1146ZM37.5556 32.5273H38.7143C39.1068 32.5273 39.4255 32.2113 39.4255 31.822C39.4255 31.4328 39.1068 31.1167 38.7143 31.1167H37.5556C37.1631 31.1167 36.8444 31.4328 36.8444 31.822C36.8444 32.2113 37.1631 32.5273 37.5556 32.5273ZM36.4835 27.1487L37.4881 26.5732C37.8279 26.3785 37.9461 25.9474 37.7498 25.6104C37.5535 25.2735 37.1187 25.1563 36.7789 25.3509L35.7743 25.9264C35.4345 26.1211 35.3163 26.5522 35.5126 26.8892C35.7068 27.2261 36.1416 27.3433 36.4835 27.1487ZM32.8428 23.0195L33.4232 22.0233C33.6195 21.6863 33.5013 21.2552 33.1615 21.0605C32.8217 20.8659 32.3869 20.9831 32.1906 21.3201L31.6103 22.3163C31.414 22.6532 31.5322 23.0844 31.872 23.279C32.2118 23.4736 32.6486 23.3564 32.8428 23.0195ZM27.6108 21.251V20.1C27.6108 19.7086 27.2921 19.3905 26.8954 19.3905C26.5007 19.3905 26.1799 19.7086 26.1799 20.1V21.251C26.1799 21.6424 26.5007 21.9605 26.8954 21.9605C27.2921 21.9605 27.6108 21.6424 27.6108 21.251ZM29.4765 45.1808C29.8015 45.095 30.0949 44.9568 30.3418 44.7789C30.8315 44.4252 31.1354 43.9167 31.1354 43.3432V43.1779C31.4457 43.1005 31.7137 42.9121 31.9184 42.6463C32.1485 42.347 32.2899 41.9473 32.2899 41.5161V41.4722C32.2899 41.0411 32.1485 40.6392 31.9184 40.342C31.72 40.0846 31.4583 39.8983 31.1565 39.8167C31.186 39.7079 31.2261 39.6053 31.2789 39.5112C31.395 39.2977 31.5702 39.1114 31.8002 38.9629C33.037 38.1613 34.0606 37.0583 34.7676 35.7587C35.4493 34.5072 35.8377 33.0735 35.8377 31.5541C35.8377 29.1054 34.8372 26.8891 33.2185 25.2861C31.5997 23.6809 29.3647 22.6888 26.8976 22.6888C24.4283 22.6888 22.1932 23.6809 20.5767 25.2861C18.9579 26.8892 17.9575 29.1056 17.9575 31.5541C17.9575 33.0735 18.3437 34.505 19.0276 35.7587C19.7346 37.0563 20.7582 38.1592 21.995 38.9629C22.2229 39.1115 22.4002 39.2977 22.5163 39.5112C22.569 39.6074 22.6091 39.71 22.6387 39.8167C22.3369 39.8983 22.0751 40.0846 21.8767 40.342C21.6467 40.6413 21.5053 41.0411 21.5053 41.4722V41.5161C21.5053 41.9473 21.6467 42.3491 21.8767 42.6463C22.0878 42.9205 22.3706 43.113 22.6935 43.1863V43.3432C22.6935 43.9187 22.9974 44.4252 23.4871 44.7789C23.7319 44.9568 24.0274 45.095 24.3524 45.1808C24.4495 45.6433 24.6838 46.0577 25.0088 46.3821C25.4456 46.8153 26.0472 47.0832 26.7119 47.0832H27.1172C27.782 47.0832 28.3835 46.8153 28.8203 46.3821C29.1475 46.0577 29.3795 45.6433 29.4765 45.1808ZM25.9287 45.277C25.9562 45.3126 25.9857 45.3482 26.0195 45.3796C26.1968 45.5554 26.4437 45.6663 26.7117 45.6663H27.1169C27.3871 45.6663 27.6319 45.5575 27.8091 45.3796C27.8408 45.3482 27.8725 45.3126 27.8999 45.277H25.9287ZM24.1221 43.2176V43.3432C24.1221 43.4437 24.2002 43.5483 24.3226 43.6404C24.5125 43.7764 24.7869 43.8622 25.1014 43.8622H28.723C29.0396 43.8622 29.314 43.7764 29.5018 43.6404C29.6263 43.5504 29.7044 43.4437 29.7044 43.3432V43.2176H24.1221ZM24.0862 39.7707H29.7064C29.7591 39.44 29.8646 39.1282 30.0208 38.8394C30.2509 38.4166 30.5886 38.0546 31.0148 37.7762C32.0553 37.1002 32.9164 36.1751 33.5074 35.0869C34.0793 34.0383 34.4044 32.8329 34.4044 31.552C34.4044 29.4947 33.5644 27.6321 32.2052 26.2843C30.8461 24.9365 28.9677 24.1035 26.8952 24.1035C24.8205 24.1035 22.9443 24.9365 21.5851 26.2843C20.2259 27.6321 19.386 29.4947 19.386 31.552C19.386 32.8328 19.711 34.0362 20.2829 35.0869C20.876 36.1751 21.735 37.1002 22.7755 37.7762C23.2039 38.0545 23.5395 38.4166 23.7717 38.8394C23.9279 39.1282 24.0335 39.44 24.0862 39.7707ZM30.8102 41.1875H30.7996L30.7912 41.1938C30.8038 41.1896 30.8292 41.1875 30.8102 41.1875ZM30.7996 41.1875H22.9929L23.0014 41.1938C23.0056 41.1959 23.0098 41.198 23.0077 41.2001C22.9613 41.2608 22.9317 41.3571 22.9317 41.4722V41.5161C22.9317 41.6312 22.9613 41.7275 23.0077 41.7882C23.0098 41.7903 23.0056 41.7924 23.0014 41.7945L22.9929 41.8007H30.7996L30.7912 41.7945C30.7848 41.7924 30.7827 41.7903 30.7848 41.7882C30.8313 41.7275 30.8608 41.6312 30.8608 41.5161V41.4722C30.8608 41.3571 30.8313 41.2608 30.7848 41.2001C30.7827 41.198 30.787 41.1959 30.7912 41.1938L30.7996 41.1875ZM22.9929 41.1875H22.9824C22.9655 41.1875 22.9887 41.1896 23.0014 41.1938L22.9929 41.1875ZM30.8104 41.8007C30.8273 41.8007 30.8038 41.7986 30.7912 41.7945L30.7996 41.8007L30.8104 41.8007ZM22.9826 41.8007L22.9929 41.8007L23.0014 41.7945C22.9887 41.7986 22.9658 41.8007 22.9826 41.8007ZM29.5505 27.2197C29.6053 27.1192 29.637 27.0041 29.637 26.8827C29.637 26.4914 29.3183 26.1733 28.9215 26.1733H26.6991V26.1774C26.448 26.1774 26.2032 26.3114 26.0745 26.5458L22.9657 32.1714C22.9023 32.2802 22.8686 32.4079 22.8707 32.5418C22.8812 32.9311 23.2084 33.2388 23.601 33.2283L24.9411 33.1885L23.888 36.5496H23.8901C23.812 36.8029 23.8817 37.0896 24.0927 37.28C24.384 37.5416 24.8335 37.5186 25.0974 37.2298L30.7218 31.0641C30.8463 30.9365 30.9202 30.7628 30.9202 30.5723C30.9181 30.183 30.5994 29.867 30.2047 29.8691L28.2377 29.8838L29.5505 27.2197ZM26.4543 30.2899L27.7776 27.5922H27.117L24.8017 31.7821L25.8654 31.7507C25.952 31.7444 26.0385 31.7549 26.125 31.78C26.5007 31.8951 26.7117 32.2907 26.5957 32.6632L26.2052 33.9126L28.5944 31.2944L27.1571 31.3049C27.0325 31.3154 26.9017 31.2944 26.7814 31.2358C26.4289 31.0642 26.2812 30.6415 26.4543 30.2899ZM40.5084 12.3142C40.5042 12.3268 40.5 12.3393 40.4958 12.3519L39.5228 15.0328C42.5514 13.8357 44.4424 12.2033 45.1937 10.1355C45.5103 9.267 45.6285 8.31269 45.5546 7.27039L41.7958 8.76263L40.5084 12.3142ZM39.0543 12.1531L36.739 7.94847C36.3211 9.85507 36.8023 12.0568 38.1826 14.5578L39.0543 12.1531ZM37.4102 6.22205L39.698 10.3785L40.5527 8.02193C40.5591 7.99681 40.5696 7.97379 40.5802 7.94868L42.7646 1.92552C40.1454 3.12892 38.3599 4.56035 37.4102 6.22205ZM42.4416 6.98387L45.3394 5.83281C45.103 4.76754 44.6915 3.62484 44.1005 2.40472L42.4416 6.98387ZM28.2589 12.7831L21.4123 17.2597C24.7871 18.0257 28.5988 16.9395 32.8406 13.9991L28.2589 12.7831ZM19.6926 16.6946L26.4187 12.2955L20.8915 10.8263L15.6427 13.7647C16.9237 15.0999 18.2722 16.0772 19.6926 16.6946ZM26.7904 10.9287L23.1835 3.78359C21.6407 3.61407 19.9819 3.79196 18.2006 4.31308L21.2651 9.46363L26.7904 10.9287ZM24.9564 4.14363L28.6266 11.4162L33.2086 12.6342C31.0157 7.98389 28.2655 5.15249 24.9564 4.14363ZM14.6865 12.6828L18.9308 10.3053L11.8816 8.43217C12.7722 10.0709 13.7072 11.4877 14.6865 12.6828ZM19.298 8.93863L16.8203 4.77595C15.3703 5.32426 13.8466 6.08816 12.2489 7.06552L19.298 8.93863Z" fill="#003946"/>
<path d="M30.7996 41.1875L30.7698 41.1474L30.7613 41.1537L30.7912 41.1938L30.821 41.2339L30.8295 41.2277L30.7996 41.1875ZM22.9929 41.1875L22.9631 41.2277L22.9715 41.2339L23.0014 41.1938L23.0312 41.1537L23.0228 41.1474L22.9929 41.1875ZM23.0014 41.7945L22.9715 41.7543L22.9631 41.7606L22.9929 41.8007L23.0228 41.8409L23.0312 41.8346L23.0014 41.7945ZM30.7996 41.8007L30.8295 41.7606L30.821 41.7543L30.7912 41.7945L30.7613 41.8346L30.7698 41.8409L30.7996 41.8007ZM34.5293 14.5347L34.4893 14.4431L34.479 14.4476L34.4699 14.4543L34.5293 14.5347ZM20.7162 18.5488L20.7418 18.4522H20.7418L20.7162 18.5488ZM10.0243 7.95661L10.1137 7.91175L10.1136 7.91159L10.0243 7.95661ZM9.94624 7.18435L9.84973 7.15818L9.84967 7.15838L9.94624 7.18435ZM10.4042 6.55439L10.3493 6.47084L10.3491 6.47097L10.4042 6.55439ZM16.8667 3.25183L16.8996 3.34668L16.9078 3.343L16.8667 3.25183ZM16.9384 3.22671L16.9626 3.32415L16.9709 3.32129L16.9384 3.22671ZM25.0028 2.68258L24.9771 2.77921L24.9771 2.77921L25.0028 2.68258ZM35.0004 13.1425L34.9085 13.1819L34.9092 13.1834L35.0004 13.1425ZM35.0237 13.199L34.9324 13.2399L34.9474 13.2734L34.9805 13.2892L35.0237 13.199ZM36.2351 13.8331L36.1857 13.9201L36.4495 14.0698L36.3265 13.7926L36.2351 13.8331ZM35.6167 6.71753L35.5228 6.68322L35.5227 6.68358L35.6167 6.71753ZM35.9523 5.93273L35.863 5.8877L35.8626 5.88858L35.9523 5.93273ZM35.9776 5.8804L35.8884 5.83535L35.8883 5.83538L35.9776 5.8804ZM43.5061 0.0683415L43.5427 0.161379L43.5428 0.161355L43.5061 0.0683415ZM44.1941 0.0557846L44.2274 -0.0385204L44.2268 -0.0387006L44.1941 0.0557846ZM44.7196 0.499469L44.6318 0.547243L44.6321 0.54791L44.7196 0.499469ZM46.5326 10.6058L46.4386 10.5716L46.4386 10.5716L46.5326 10.6058ZM39.8064 16.4387L39.7708 16.3453L39.6197 16.4029L39.7388 16.5123L39.8064 16.4387ZM42.9744 20.1912L42.8904 20.2455L42.8904 20.2455L42.9744 20.1912ZM40.3383 44.3283L40.2678 44.2573L40.2678 44.2573L40.3383 44.3283ZM12.7195 44.3283L12.79 44.2573L12.7899 44.2573L12.7195 44.3283ZM7.15196 28.211L7.05273 28.1986L7.05273 28.1986L7.15196 28.211ZM7.60572 25.8314L7.50885 25.8066L7.50885 25.8066L7.60572 25.8314ZM8.47316 25.3186L8.4976 25.2217L8.49759 25.2217L8.47316 25.3186ZM8.99024 26.1788L9.08705 26.2039L9.08711 26.2037L8.99024 26.1788ZM8.57024 28.3826L8.66946 28.3951L8.66948 28.3949L8.57024 28.3826ZM41.7756 20.9553L41.6917 21.0096L41.6917 21.0096L41.7756 20.9553ZM37.9809 16.734L38.0439 16.6563L38.037 16.6507L38.0292 16.6464L37.9809 16.734ZM37.7256 16.5309L37.7997 16.4638L37.7939 16.4574L37.787 16.452L37.7256 16.5309ZM34.5302 14.5343L34.5742 14.4445L34.5326 14.4242L34.4902 14.4427L34.5302 14.5343ZM22.1847 22.3141L22.2711 22.2638L22.2711 22.2638L22.1847 22.3141ZM21.6043 21.3179L21.6907 21.2676L21.6905 21.2672L21.6043 21.3179ZM20.6293 21.0605L20.5794 20.9738L20.5792 20.974L20.6293 21.0605ZM20.3697 22.0274L20.4561 21.9771L20.456 21.9769L20.3697 22.0274ZM20.95 23.0236L20.8636 23.074L20.8639 23.0744L20.95 23.0236ZM21.9251 23.2811L21.975 23.3677L21.9752 23.3676L21.9251 23.2811ZM18.0207 25.9243L17.971 26.0111L17.971 26.0111L18.0207 25.9243ZM17.016 25.3488L17.0658 25.262L17.0658 25.262L17.016 25.3488ZM16.0452 25.6083L15.9588 25.558L15.9588 25.558L16.0452 25.6083ZM16.3069 26.5711L16.3566 26.4843H16.3566L16.3069 26.5711ZM17.3115 27.1466L17.2618 27.2334L17.2618 27.2334L17.3115 27.1466ZM18.2824 26.8871L18.3688 26.9374L18.3688 26.9374L18.2824 26.8871ZM36.4835 27.1487L36.5329 27.2356L36.5332 27.2355L36.4835 27.1487ZM37.4881 26.5732L37.4384 26.4864L37.4384 26.4864L37.4881 26.5732ZM37.7498 25.6104L37.6634 25.6608V25.6608L37.7498 25.6104ZM36.7789 25.3509L36.7292 25.2641L36.7292 25.2641L36.7789 25.3509ZM35.7743 25.9264L35.824 26.0132L35.824 26.0132L35.7743 25.9264ZM35.5126 26.8892L35.5993 26.8392L35.599 26.8388L35.5126 26.8892ZM32.8428 23.0195L32.7564 22.9691L32.7562 22.9696L32.8428 23.0195ZM33.4232 22.0233L33.5096 22.0736L33.5096 22.0736L33.4232 22.0233ZM32.1906 21.3201L32.277 21.3704L32.277 21.3704L32.1906 21.3201ZM31.6103 22.3163L31.5238 22.2659L31.5238 22.2659L31.6103 22.3163ZM31.872 23.279L31.8222 23.3658H31.8223L31.872 23.279ZM29.4765 45.1808L29.451 45.0841L29.3913 45.0998L29.3786 45.1602L29.4765 45.1808ZM30.3418 44.7789L30.4003 44.8601L30.4004 44.86L30.3418 44.7789ZM31.1354 43.1779L31.1112 43.0809L31.0354 43.0998V43.1779H31.1354ZM31.9184 42.6463L31.9976 42.7073L31.9977 42.7072L31.9184 42.6463ZM31.9184 40.342L31.8392 40.4031L31.8393 40.4032L31.9184 40.342ZM31.1565 39.8167L31.06 39.7905L31.0338 39.8871L31.1304 39.9133L31.1565 39.8167ZM31.2789 39.5112L31.3662 39.56L31.3668 39.5589L31.2789 39.5112ZM31.8002 38.9629L31.8545 39.0469L31.8546 39.0468L31.8002 38.9629ZM34.7676 35.7587L34.6798 35.7108L34.6798 35.7109L34.7676 35.7587ZM33.2185 25.2861L33.1481 25.3571L33.1481 25.3571L33.2185 25.2861ZM20.5767 25.2861L20.6471 25.3571L20.6472 25.357L20.5767 25.2861ZM19.0276 35.7587L19.1154 35.7108L19.1154 35.7108L19.0276 35.7587ZM21.995 38.9629L22.0496 38.8791L22.0494 38.879L21.995 38.9629ZM22.5163 39.5112L22.4284 39.5589L22.4286 39.5592L22.5163 39.5112ZM22.6387 39.8167L22.6648 39.9133L22.7619 39.887L22.735 39.7901L22.6387 39.8167ZM21.8767 40.342L21.7975 40.281L21.7975 40.2811L21.8767 40.342ZM21.8767 42.6463L21.956 42.5853L21.9558 42.5851L21.8767 42.6463ZM22.6935 43.1863H22.7935V43.1064L22.7156 43.0887L22.6935 43.1863ZM23.4871 44.7789L23.5459 44.698L23.5456 44.6979L23.4871 44.7789ZM24.3524 45.1808L24.4503 45.1602L24.4376 45.0998L24.3779 45.0841L24.3524 45.1808ZM25.0088 46.3821L24.9381 46.4528L24.9384 46.4531L25.0088 46.3821ZM28.8203 46.3821L28.7499 46.3111L28.7499 46.3111L28.8203 46.3821ZM25.9287 45.277V45.177H25.7253L25.8495 45.3381L25.9287 45.277ZM26.0195 45.3796L26.0899 45.3085L26.0876 45.3064L26.0195 45.3796ZM27.8091 45.3796L27.7387 45.3086L27.7383 45.309L27.8091 45.3796ZM27.8999 45.277L27.9791 45.3381L28.1033 45.177H27.8999V45.277ZM24.1221 43.2176V43.1176H24.0221V43.2176H24.1221ZM24.3226 43.6404L24.2625 43.7203L24.2644 43.7217L24.3226 43.6404ZM29.5018 43.6404L29.4432 43.5593L29.4431 43.5594L29.5018 43.6404ZM29.7044 43.2176H29.8044V43.1176H29.7044V43.2176ZM24.0862 39.7707L23.9875 39.7864L24.0009 39.8707H24.0862V39.7707ZM29.7064 39.7707V39.8707H29.7917L29.8051 39.7864L29.7064 39.7707ZM30.0208 38.8394L29.933 38.7916L29.9329 38.7918L30.0208 38.8394ZM31.0148 37.7762L30.9604 37.6923L30.9602 37.6924L31.0148 37.7762ZM33.5074 35.0869L33.4196 35.039L33.4195 35.0391L33.5074 35.0869ZM20.2829 35.0869L20.1951 35.1347L20.1951 35.1347L20.2829 35.0869ZM22.7755 37.7762L22.83 37.6923H22.83L22.7755 37.7762ZM23.7717 38.8394L23.8596 38.7918L23.8593 38.7912L23.7717 38.8394ZM30.7912 41.1938L30.7595 41.0979L30.7468 41.1042L30.7912 41.1938ZM23.0014 41.1938L23.0462 41.1033L23.0327 41.0989L23.0014 41.1938ZM23.0077 41.2001L22.9366 41.1284L22.9283 41.1393L23.0077 41.2001ZM23.0077 41.7882L22.9275 41.8495L22.9373 41.8592L23.0077 41.7882ZM23.0014 41.7945L23.0331 41.8904L23.0458 41.8841L23.0014 41.7945ZM22.9929 41.8007L22.9928 41.9007H22.9929V41.8007ZM30.7996 41.8007V41.9007H30.7997L30.7996 41.8007ZM30.7912 41.7945L30.7598 41.8894H30.7598L30.7912 41.7945ZM30.7848 41.7882L30.8559 41.8599L30.8643 41.8489L30.7848 41.7882ZM30.7848 41.2001L30.865 41.1388L30.8553 41.1291L30.7848 41.2001ZM30.8104 41.8007V41.7007H30.8103L30.8104 41.8007ZM22.9826 41.8007L22.9828 41.7007H22.9826V41.8007ZM29.5505 27.2197L29.4626 27.1717L29.4608 27.1755L29.5505 27.2197ZM26.6991 26.1733V26.0732H26.5991V26.1733H26.6991ZM26.6991 26.1774V26.2774H26.7991V26.1774H26.6991ZM26.0745 26.5458L26.162 26.5941L26.1621 26.5939L26.0745 26.5458ZM22.9657 32.1714L23.0521 32.2217L23.0532 32.2198L22.9657 32.1714ZM22.8707 32.5418L22.7707 32.5434L22.7707 32.5445L22.8707 32.5418ZM23.601 33.2283L23.6036 33.3282L23.6039 33.3282L23.601 33.2283ZM24.9411 33.1885L25.0366 33.2184L25.0786 33.0844L24.9382 33.0885L24.9411 33.1885ZM23.888 36.5496L23.7926 36.5197L23.7519 36.6496H23.888V36.5496ZM23.8901 36.5496L23.9857 36.5791L24.0256 36.4496H23.8901V36.5496ZM24.0927 37.28L24.0257 37.3543L24.0259 37.3544L24.0927 37.28ZM25.0974 37.2298L25.1712 37.2973L25.1712 37.2972L25.0974 37.2298ZM30.7218 31.0641L30.6502 30.9943L30.6479 30.9967L30.7218 31.0641ZM30.9202 30.5723H31.0202L31.0202 30.5718L30.9202 30.5723ZM30.2047 29.8691L30.2042 29.7691L30.204 29.7691L30.2047 29.8691ZM28.2377 29.8838L28.148 29.8396L28.0764 29.985L28.2385 29.9838L28.2377 29.8838ZM26.4543 30.2899L26.544 30.3341L26.5441 30.334L26.4543 30.2899ZM27.7776 27.5922L27.8674 27.6362L27.938 27.4922H27.7776V27.5922ZM27.117 27.5922V27.4922H27.058L27.0294 27.5438L27.117 27.5922ZM24.8017 31.7821L24.7142 31.7337L24.6294 31.8872L24.8047 31.8821L24.8017 31.7821ZM25.8654 31.7507L25.8684 31.8508L25.8727 31.8504L25.8654 31.7507ZM26.125 31.78L26.1543 31.6844L26.1529 31.684L26.125 31.78ZM26.5957 32.6632L26.6911 32.693L26.6912 32.6929L26.5957 32.6632ZM26.2052 33.9126L26.1098 33.8828L26.2791 33.98L26.2052 33.9126ZM28.5944 31.2944L28.6682 31.3618L28.8225 31.1928L28.5936 31.1944L28.5944 31.2944ZM27.1571 31.3049L27.1563 31.2046L27.1487 31.2053L27.1571 31.3049ZM26.7814 31.2358L26.8252 31.1459L26.8252 31.1459L26.7814 31.2358ZM40.5084 12.3142L40.4144 12.2801L40.4136 12.2823L40.5084 12.3142ZM40.4958 12.3519L40.5898 12.386L40.5905 12.3837L40.4958 12.3519ZM39.5228 15.0328L39.4288 14.9987L39.353 15.2075L39.5596 15.1258L39.5228 15.0328ZM45.1937 10.1355L45.0998 10.1013L45.0997 10.1014L45.1937 10.1355ZM45.5546 7.27039L45.6544 7.26332L45.6447 7.12704L45.5177 7.17745L45.5546 7.27039ZM41.7958 8.76263L41.7589 8.66968L41.7171 8.68628L41.7018 8.72855L41.7958 8.76263ZM39.0543 12.1531L39.1483 12.1871L39.1637 12.1445L39.1419 12.1048L39.0543 12.1531ZM36.739 7.94847L36.8266 7.90024L36.6983 7.6672L36.6413 7.92706L36.739 7.94847ZM38.1826 14.5578L38.0951 14.6061L38.2015 14.799L38.2766 14.5918L38.1826 14.5578ZM37.4102 6.22205L37.3233 6.17243L37.2955 6.22113L37.3225 6.27027L37.4102 6.22205ZM39.698 10.3785L39.6104 10.4267L39.7168 10.62L39.792 10.4126L39.698 10.3785ZM40.5527 8.02193L40.6472 8.0562L40.6497 8.04637L40.5527 8.02193ZM40.5802 7.94868L40.6725 7.98746L40.6742 7.98277L40.5802 7.94868ZM42.7646 1.92552L42.8586 1.95961L42.9401 1.73482L42.7228 1.83465L42.7646 1.92552ZM42.4416 6.98387L42.3476 6.94981L42.2719 7.1589L42.4786 7.0768L42.4416 6.98387ZM45.3394 5.83281L45.3763 5.92575L45.4555 5.89431L45.437 5.81115L45.3394 5.83281ZM44.1005 2.40472L44.1905 2.36113L44.0872 2.14785L44.0065 2.37066L44.1005 2.40472ZM28.2589 12.7831L28.2846 12.6864L28.2415 12.675L28.2042 12.6994L28.2589 12.7831ZM21.4123 17.2597L21.3576 17.176L21.1603 17.3051L21.3902 17.3572L21.4123 17.2597ZM32.8406 13.9991L32.8976 14.0812L33.0755 13.9579L32.8663 13.9024L32.8406 13.9991ZM19.6926 16.6946L19.6527 16.7864L19.7022 16.8079L19.7473 16.7783L19.6926 16.6946ZM26.4187 12.2955L26.4734 12.3792L26.6611 12.2564L26.4444 12.1988L26.4187 12.2955ZM20.8915 10.8263L20.9172 10.7296L20.878 10.7192L20.8427 10.739L20.8915 10.8263ZM15.6427 13.7647L15.5938 13.6774L15.481 13.7406L15.5705 13.8339L15.6427 13.7647ZM26.7904 10.9287L26.7648 11.0253L26.98 11.0824L26.8797 10.8836L26.7904 10.9287ZM23.1835 3.78359L23.2728 3.73853L23.2484 3.69011L23.1945 3.68419L23.1835 3.78359ZM18.2006 4.31308L18.1725 4.21711L18.0487 4.25333L18.1146 4.36422L18.2006 4.31308ZM21.2651 9.46363L21.1791 9.51476L21.2 9.54983L21.2394 9.56029L21.2651 9.46363ZM24.9564 4.14363L24.9856 4.04798L24.7617 3.97971L24.8671 4.18868L24.9564 4.14363ZM28.6266 11.4162L28.5373 11.4613L28.5576 11.5013L28.6009 11.5129L28.6266 11.4162ZM33.2086 12.6342L33.1829 12.7309L33.3908 12.7861L33.299 12.5916L33.2086 12.6342ZM14.6865 12.6828L14.6092 12.7462L14.6623 12.811L14.7354 12.77L14.6865 12.6828ZM18.9308 10.3053L18.9796 10.3925L19.1948 10.272L18.9565 10.2086L18.9308 10.3053ZM11.8816 8.43217L11.9072 8.33552L11.6828 8.27589L11.7937 8.47992L11.8816 8.43217ZM19.298 8.93863L19.2723 9.03528L19.5094 9.09828L19.3839 8.88749L19.298 8.93863ZM16.8203 4.77595L16.9062 4.7248L16.8633 4.65276L16.7849 4.68241L16.8203 4.77595ZM12.2489 7.06552L12.1967 6.98022L11.9974 7.10216L12.2232 7.16217L12.2489 7.06552ZM34.5293 14.5347L34.4699 14.4543C29.3894 18.2124 24.8179 19.5315 20.7418 18.4522L20.7162 18.5488L20.6906 18.6455C24.8496 19.7468 29.4839 18.3913 34.5888 14.6151L34.5293 14.5347ZM20.7162 18.5488L20.7418 18.4522C16.6474 17.3682 13.1029 13.8674 10.1137 7.91175L10.0243 7.95661L9.93495 8.00147C12.9355 13.9798 16.516 17.5403 20.6906 18.6455L20.7162 18.5488ZM10.0243 7.95661L10.1136 7.91159C10.0007 7.68756 9.98137 7.43877 10.0428 7.21032L9.94624 7.18435L9.84967 7.15838C9.77603 7.43221 9.79895 7.73175 9.93504 8.00163L10.0243 7.95661ZM9.94624 7.18435L10.0428 7.21052C10.1041 6.98449 10.2458 6.77901 10.4594 6.6378L10.4042 6.55439L10.3491 6.47097C10.0941 6.63953 9.9235 6.88611 9.84973 7.15818L9.94624 7.18435ZM10.4042 6.55439L10.4592 6.63794C12.7291 5.14493 14.8765 4.04828 16.8995 3.3463L16.8667 3.25183L16.8339 3.15736C14.7919 3.86596 12.6296 4.97101 10.3493 6.47084L10.4042 6.55439ZM16.8667 3.25183L16.9078 3.343C16.9262 3.33468 16.9437 3.32843 16.9625 3.32378L16.9384 3.22671L16.9144 3.12965C16.8825 3.13756 16.8536 3.14805 16.8256 3.16066L16.8667 3.25183ZM16.9384 3.22671L16.9709 3.32129C19.8987 2.31536 22.5669 2.1366 24.9771 2.77921L25.0028 2.68258L25.0286 2.58596C22.5718 1.93093 19.8623 2.11638 16.9059 3.13214L16.9384 3.22671ZM25.0028 2.68258L24.9771 2.77921C29.0824 3.87308 32.3989 7.32778 34.9085 13.1819L35.0004 13.1425L35.0923 13.1031C32.5707 7.22085 29.2177 3.70215 25.0286 2.58596L25.0028 2.68258ZM35.0004 13.1425L34.9092 13.1834C34.9123 13.1903 34.9151 13.1975 34.9189 13.2072C34.9225 13.2163 34.927 13.2279 34.9324 13.2399L35.0237 13.199L35.1149 13.1581C35.1118 13.1512 35.109 13.144 35.1051 13.1342C35.1016 13.1251 35.097 13.1135 35.0917 13.1016L35.0004 13.1425ZM35.0237 13.199L34.9805 13.2892C35.3897 13.4848 35.7929 13.6972 36.1857 13.9201L36.2351 13.8331L36.2844 13.7461C35.888 13.5212 35.4807 13.3066 35.0668 13.1088L35.0237 13.199ZM36.2351 13.8331L36.3265 13.7926C35.1624 11.1699 34.9621 8.82603 35.7108 6.75147L35.6167 6.71753L35.5227 6.68358C34.7518 8.81956 34.965 11.2181 36.1437 13.8737L36.2351 13.8331ZM35.6167 6.71753L35.7107 6.75184C35.8065 6.48944 35.917 6.23111 36.042 5.97687L35.9523 5.93273L35.8626 5.88858C35.7344 6.14914 35.6211 6.41403 35.5228 6.68322L35.6167 6.71753ZM35.9523 5.93273L36.0416 5.97775C36.0465 5.96812 36.0512 5.95811 36.0553 5.94944C36.0596 5.94032 36.0633 5.93254 36.0669 5.92543L35.9776 5.8804L35.8883 5.83538C35.8835 5.84501 35.8787 5.85502 35.8746 5.86369C35.8703 5.87281 35.8666 5.88059 35.863 5.8877L35.9523 5.93273ZM35.9776 5.8804L36.0669 5.92546C37.2457 3.58962 39.7291 1.66414 43.5427 0.161379L43.5061 0.0683415L43.4694 -0.0246959C39.6341 1.48658 37.0986 3.4371 35.8884 5.83535L35.9776 5.8804ZM43.5061 0.0683415L43.5428 0.161355C43.7472 0.0806527 43.9652 0.0822881 44.1613 0.15027L44.1941 0.0557846L44.2268 -0.0387006C43.9882 -0.121403 43.7208 -0.123957 43.4694 -0.0246715L43.5061 0.0683415ZM44.1941 0.0557846L44.1608 0.150088C44.3585 0.219826 44.5282 0.356861 44.6318 0.547241L44.7196 0.499469L44.8075 0.451696C44.6788 0.215141 44.4687 0.0466133 44.2274 -0.0385189L44.1941 0.0557846ZM44.7196 0.499469L44.6321 0.54791C46.8335 4.52358 47.4246 7.86078 46.4386 10.5716L46.5326 10.6058L46.6265 10.6399C47.6412 7.85048 47.0209 4.44916 44.8071 0.451028L44.7196 0.499469ZM46.5326 10.6058L46.4386 10.5716C45.534 13.0626 43.32 14.9907 39.7708 16.3453L39.8064 16.4387L39.8421 16.5321C43.422 15.1658 45.695 13.2053 46.6266 10.6399L46.5326 10.6058ZM39.8064 16.4387L39.7388 16.5123C40.942 17.618 42.0022 18.8714 42.8904 20.2455L42.9744 20.1912L43.0583 20.1369C42.1609 18.7485 41.0896 17.482 39.8741 16.3651L39.8064 16.4387ZM42.9744 20.1912L42.8904 20.2455C44.8304 23.2457 45.9578 26.8097 45.9578 30.6345H46.0578H46.1578C46.1578 26.7698 45.0185 23.1683 43.0583 20.1369L42.9744 20.1912ZM46.0578 30.6345H45.9578C45.9578 35.9539 43.7828 40.7718 40.2678 44.2573L40.3383 44.3283L40.4087 44.3993C43.9598 40.878 46.1578 36.0096 46.1578 30.6345H46.0578ZM40.3383 44.3283L40.2678 44.2573C36.7529 47.7449 31.8943 49.9 26.5289 49.9V50V50.1C31.9489 50.1 36.8576 47.9228 40.4087 44.3993L40.3383 44.3283ZM26.5289 50V49.9C21.1638 49.9 16.3049 47.7429 12.79 44.2573L12.7195 44.3283L12.6491 44.3993C16.2002 47.9207 21.1092 50.1 26.5289 50.1V50ZM12.7195 44.3283L12.7899 44.2573C9.27291 40.7718 7.1 35.9542 7.1 30.6345H7H6.9C6.9 36.0099 9.09591 40.8779 12.6492 44.3993L12.7195 44.3283ZM7 30.6345H7.1C7.1 29.8184 7.15249 29.0147 7.25119 28.2234L7.15196 28.211L7.05273 28.1986C6.95304 28.9978 6.9 29.8098 6.9 30.6345H7ZM7.15196 28.211L7.25118 28.2234C7.35194 27.4178 7.5052 26.6267 7.70259 25.8562L7.60572 25.8314L7.50885 25.8066C7.30947 26.5848 7.15458 27.3843 7.05273 28.1986L7.15196 28.211ZM7.60572 25.8314L7.70259 25.8562C7.78589 25.5312 8.11969 25.3327 8.44872 25.4156L8.47316 25.3186L8.49759 25.2217C8.06259 25.1121 7.61971 25.374 7.50885 25.8066L7.60572 25.8314ZM8.47316 25.3186L8.44872 25.4156C8.77796 25.4986 8.97645 25.8298 8.89337 26.154L8.99024 26.1788L9.08711 26.2037C9.19817 25.7702 8.93237 25.3312 8.4976 25.2217L8.47316 25.3186ZM8.99024 26.1788L8.89342 26.1538C8.70663 26.8757 8.5644 27.6167 8.471 28.3703L8.57024 28.3826L8.66948 28.3949C8.76181 27.65 8.90239 26.9176 9.08705 26.2039L8.99024 26.1788ZM8.57024 28.3826L8.47103 28.3701C8.37765 29.1109 8.32884 29.8664 8.32884 30.6345H8.42884H8.52884C8.52884 29.8749 8.57711 29.1277 8.66946 28.3951L8.57024 28.3826ZM8.42884 30.6345H8.32884C8.32884 35.6183 10.3665 40.1306 13.6601 43.3969L13.7305 43.3259L13.8009 43.2549C10.5434 40.0244 8.52884 35.5626 8.52884 30.6345H8.42884ZM13.7305 43.3259L13.6601 43.3969C16.9536 46.6632 21.5039 48.6832 26.5289 48.6832V48.5832V48.4832C21.5585 48.4832 17.0584 46.4854 13.8009 43.2549L13.7305 43.3259ZM26.5289 48.5832V48.6832C31.554 48.6832 36.104 46.6629 39.3978 43.3969L39.3274 43.3259L39.257 43.2549C35.9992 46.4851 31.4993 48.4832 26.5289 48.4832V48.5832ZM39.3274 43.3259L39.3978 43.3969C42.6917 40.1309 44.729 35.6183 44.729 30.6345H44.629H44.529C44.529 35.5626 42.5147 40.0247 39.257 43.2549L39.3274 43.3259ZM44.629 30.6345H44.729C44.729 27.0484 43.6763 23.7085 41.8596 20.9009L41.7756 20.9553L41.6917 21.0096C43.4881 23.7858 44.529 27.0882 44.529 30.6345H44.629ZM41.7756 20.9553L41.8596 20.901C40.8197 19.2931 39.5294 17.86 38.0439 16.6563L37.9809 16.734L37.918 16.8117C39.3872 18.0022 40.6633 19.4195 41.6917 21.0096L41.7756 20.9553ZM37.9809 16.734L38.0292 16.6464C37.9443 16.5996 37.8664 16.5375 37.7997 16.4638L37.7256 16.5309L37.6514 16.598C37.7325 16.6876 37.8277 16.7637 37.9327 16.8215L37.9809 16.734ZM37.7256 16.5309L37.787 16.452C36.7939 15.6798 35.7181 15.0043 34.5742 14.4445L34.5302 14.5343L34.4863 14.6242C35.6176 15.1778 36.6818 15.8459 37.6642 16.6099L37.7256 16.5309ZM34.5302 14.5343L34.4902 14.4427L34.4893 14.4431L34.5293 14.5347L34.5694 14.6264L34.5702 14.626L34.5302 14.5343ZM22.1847 22.3141L22.2711 22.2638L21.6907 21.2676L21.6043 21.3179L21.5179 21.3683L22.0983 22.3645L22.1847 22.3141ZM21.6043 21.3179L21.6905 21.2672C21.4644 20.8832 20.9691 20.7496 20.5794 20.9738L20.6293 21.0605L20.6791 21.1472C20.9733 20.9779 21.3475 21.0787 21.5182 21.3687L21.6043 21.3179ZM20.6293 21.0605L20.5792 20.974C20.1923 21.1979 20.0564 21.6901 20.2834 22.0779L20.3697 22.0274L20.456 21.9769C20.2861 21.6866 20.3866 21.3166 20.6794 21.147L20.6293 21.0605ZM20.3697 22.0274L20.2833 22.0778L20.8636 23.074L20.95 23.0236L21.0365 22.9733L20.4561 21.9771L20.3697 22.0274ZM20.95 23.0236L20.8639 23.0744C21.09 23.4583 21.5853 23.5919 21.975 23.3677L21.9251 23.2811L21.8752 23.1944C21.5811 23.3636 21.2069 23.2628 21.0362 22.9729L20.95 23.0236ZM21.9251 23.2811L21.9752 23.3676C22.3624 23.1434 22.4955 22.649 22.2711 22.2638L22.1847 22.3141L22.0983 22.3645C22.2665 22.6531 22.1674 23.0252 21.875 23.1945L21.9251 23.2811ZM18.0207 25.9243L18.0704 25.8376L17.0658 25.262L17.016 25.3488L16.9663 25.4356L17.971 26.0111L18.0207 25.9243ZM17.016 25.3488L17.0658 25.262C16.6782 25.0401 16.1827 25.1736 15.9588 25.558L16.0452 25.6083L16.1316 25.6587C16.3003 25.3691 16.6743 25.2683 16.9663 25.4356L17.016 25.3488ZM16.0452 25.6083L15.9588 25.558C15.7341 25.9437 15.87 26.436 16.2572 26.6578L16.3069 26.5711L16.3566 26.4843C16.0642 26.3168 15.9637 25.9469 16.1316 25.6587L16.0452 25.6083ZM16.3069 26.5711L16.2572 26.6578L17.2618 27.2334L17.3115 27.1466L17.3612 27.0598L16.3566 26.4843L16.3069 26.5711ZM17.3115 27.1466L17.2618 27.2334C17.6493 27.4553 18.1449 27.3218 18.3688 26.9374L18.2824 26.8871L18.196 26.8367C18.0273 27.1263 17.6533 27.2271 17.3612 27.0598L17.3115 27.1466ZM18.2824 26.8871L18.3688 26.9374C18.5934 26.5517 18.4576 26.0594 18.0704 25.8376L18.0207 25.9243L17.971 26.0111C18.2633 26.1786 18.3639 26.5485 18.196 26.8367L18.2824 26.8871ZM16.2373 31.1146V31.0146H15.0786V31.1146V31.2146H16.2373V31.1146ZM15.0786 31.1146V31.0146C14.6316 31.0146 14.2674 31.3746 14.2674 31.8199H14.3674H14.4674C14.4674 31.4867 14.7405 31.2146 15.0786 31.2146V31.1146ZM14.3674 31.8199H14.2674C14.2674 32.2652 14.6316 32.6252 15.0786 32.6252V32.5252V32.4252C14.7405 32.4252 14.4674 32.1532 14.4674 31.8199H14.3674ZM15.0786 32.5252V32.6252H16.2373V32.5252V32.4252H15.0786V32.5252ZM16.2373 32.5252V32.6252C16.6843 32.6252 17.0485 32.2652 17.0485 31.8199H16.9485H16.8485C16.8485 32.1532 16.5754 32.4252 16.2373 32.4252V32.5252ZM16.9485 31.8199H17.0485C17.0485 31.3746 16.6843 31.0146 16.2373 31.0146V31.1146V31.2146C16.5754 31.2146 16.8485 31.4867 16.8485 31.8199H16.9485ZM37.5556 32.5273V32.6273H38.7143V32.5273V32.4273H37.5556V32.5273ZM38.7143 32.5273V32.6273C39.1613 32.6273 39.5255 32.2673 39.5255 31.822H39.4255H39.3255C39.3255 32.1553 39.0524 32.4273 38.7143 32.4273V32.5273ZM39.4255 31.822H39.5255C39.5255 31.3767 39.1613 31.0167 38.7143 31.0167V31.1167V31.2167C39.0524 31.2167 39.3255 31.4888 39.3255 31.822H39.4255ZM38.7143 31.1167V31.0167H37.5556V31.1167V31.2167H38.7143V31.1167ZM37.5556 31.1167V31.0167C37.1086 31.0167 36.7444 31.3767 36.7444 31.822H36.8444H36.9444C36.9444 31.4888 37.2175 31.2167 37.5556 31.2167V31.1167ZM36.8444 31.822H36.7444C36.7444 32.2673 37.1086 32.6273 37.5556 32.6273V32.5273V32.4273C37.2175 32.4273 36.9444 32.1553 36.9444 31.822H36.8444ZM36.4835 27.1487L36.5332 27.2355L37.5378 26.6599L37.4881 26.5732L37.4384 26.4864L36.4338 27.0619L36.4835 27.1487ZM37.4881 26.5732L37.5378 26.6599C37.925 26.4381 38.0609 25.9457 37.8362 25.5601L37.7498 25.6104L37.6634 25.6608C37.8313 25.949 37.7308 26.3189 37.4384 26.4864L37.4881 26.5732ZM37.7498 25.6104L37.8362 25.5601C37.6123 25.1757 37.1167 25.0422 36.7292 25.2641L36.7789 25.3509L36.8286 25.4377C37.1207 25.2704 37.4947 25.3712 37.6634 25.6608L37.7498 25.6104ZM36.7789 25.3509L36.7292 25.2641L35.7246 25.8397L35.7743 25.9264L35.824 26.0132L36.8286 25.4377L36.7789 25.3509ZM35.7743 25.9264L35.7246 25.8397C35.3374 26.0615 35.2016 26.5539 35.4262 26.9395L35.5126 26.8892L35.599 26.8388C35.4311 26.5506 35.5317 26.1807 35.824 26.0132L35.7743 25.9264ZM35.5126 26.8892L35.426 26.9391C35.6479 27.3243 36.1438 27.4571 36.5329 27.2356L36.4835 27.1487L36.434 27.0618C36.1394 27.2295 35.7656 27.128 35.5993 26.8392L35.5126 26.8892ZM32.8428 23.0195L32.9292 23.0698L33.5096 22.0736L33.4232 22.0233L33.3368 21.9729L32.7564 22.9692L32.8428 23.0195ZM33.4232 22.0233L33.5096 22.0736C33.7342 21.688 33.5984 21.1956 33.2112 20.9738L33.1615 21.0605L33.1118 21.1473C33.4041 21.3148 33.5047 21.6847 33.3368 21.9729L33.4232 22.0233ZM33.1615 21.0605L33.2112 20.9738C32.8237 20.7518 32.3281 20.8853 32.1042 21.2697L32.1906 21.3201L32.277 21.3704C32.4457 21.0809 32.8197 20.98 33.1118 21.1473L33.1615 21.0605ZM32.1906 21.3201L32.1042 21.2697L31.5238 22.2659L31.6103 22.3163L31.6967 22.3666L32.277 21.3704L32.1906 21.3201ZM31.6103 22.3163L31.5238 22.2659C31.2992 22.6516 31.435 23.144 31.8222 23.3658L31.872 23.279L31.9217 23.1922C31.6293 23.0248 31.5288 22.6549 31.6967 22.3666L31.6103 22.3163ZM31.872 23.279L31.8223 23.3658C32.2095 23.5876 32.7075 23.4545 32.9295 23.0694L32.8428 23.0195L32.7562 22.9696C32.5897 23.2584 32.214 23.3597 31.9217 23.1922L31.872 23.279ZM27.6108 21.251H27.7108V20.1H27.6108H27.5108V21.251H27.6108ZM27.6108 20.1H27.7108C27.7108 19.6528 27.3468 19.2905 26.8954 19.2905V19.3905V19.4905C27.2375 19.4905 27.5108 19.7644 27.5108 20.1H27.6108ZM26.8954 19.3905V19.2905C26.4463 19.2905 26.0799 19.6526 26.0799 20.1H26.1799H26.2799C26.2799 19.7646 26.5551 19.4905 26.8954 19.4905V19.3905ZM26.1799 20.1H26.0799V21.251H26.1799H26.2799V20.1H26.1799ZM26.1799 21.251H26.0799C26.0799 21.6984 26.4463 22.0605 26.8954 22.0605V21.9605V21.8605C26.5551 21.8605 26.2799 21.5864 26.2799 21.251H26.1799ZM26.8954 21.9605V22.0605C27.3468 22.0605 27.7108 21.6982 27.7108 21.251H27.6108H27.5108C27.5108 21.5865 27.2375 21.8605 26.8954 21.8605V21.9605ZM29.4765 45.1808L29.502 45.2775C29.8382 45.1887 30.1428 45.0455 30.4003 44.8601L30.3418 44.7789L30.2834 44.6978C30.0469 44.8681 29.7648 45.0012 29.451 45.0841L29.4765 45.1808ZM30.3418 44.7789L30.4004 44.86C30.9109 44.4913 31.2354 43.9547 31.2354 43.3432H31.1354H31.0354C31.0354 43.8786 30.7521 44.3592 30.2833 44.6979L30.3418 44.7789ZM31.1354 43.3432H31.2354V43.1779H31.1354H31.0354V43.3432H31.1354ZM31.1354 43.1779L31.1596 43.2749C31.4946 43.1913 31.781 42.9886 31.9976 42.7073L31.9184 42.6463L31.8392 42.5853C31.6464 42.8356 31.3968 43.0096 31.1112 43.0809L31.1354 43.1779ZM31.9184 42.6463L31.9977 42.7072C32.2415 42.39 32.3899 41.9687 32.3899 41.5161H32.2899H32.1899C32.1899 41.9258 32.0554 42.304 31.8391 42.5854L31.9184 42.6463ZM32.2899 41.5161H32.3899V41.4722H32.2899H32.1899V41.5161H32.2899ZM32.2899 41.4722H32.3899C32.3899 41.0198 32.2416 40.5962 31.9975 40.2808L31.9184 40.342L31.8393 40.4032C32.0553 40.6822 32.1899 41.0623 32.1899 41.4722H32.2899ZM31.9184 40.342L31.9976 40.281C31.7875 40.0083 31.508 39.8082 31.1826 39.7202L31.1565 39.8167L31.1304 39.9133C31.4087 39.9885 31.6526 40.1609 31.8392 40.4031L31.9184 40.342ZM31.1565 39.8167L31.253 39.8429C31.2807 39.7408 31.318 39.6461 31.3661 39.56L31.2789 39.5112L31.1917 39.4623C31.1343 39.5646 31.0914 39.675 31.06 39.7905L31.1565 39.8167ZM31.2789 39.5112L31.3668 39.5589C31.4741 39.3615 31.6372 39.1872 31.8545 39.0469L31.8002 38.9629L31.746 38.8789C31.5032 39.0357 31.3158 39.2339 31.1911 39.4634L31.2789 39.5112ZM31.8002 38.9629L31.8546 39.0468C33.1053 38.2362 34.1404 37.1208 34.8554 35.8065L34.7676 35.7587L34.6798 35.7109C33.9807 36.9959 32.9687 38.0864 31.7458 38.8789L31.8002 38.9629ZM34.7676 35.7587L34.8554 35.8065C35.5449 34.5408 35.9377 33.0908 35.9377 31.5541H35.8377H35.7377C35.7377 33.0563 35.3537 34.4735 34.6798 35.7108L34.7676 35.7587ZM35.8377 31.5541H35.9377C35.9377 29.0776 34.9257 26.836 33.2888 25.215L33.2185 25.2861L33.1481 25.3571C34.7488 26.9422 35.7377 29.1333 35.7377 31.5541H35.8377ZM33.2185 25.2861L33.2889 25.2151C31.6521 23.5919 29.392 22.5888 26.8976 22.5888V22.6888V22.7888C29.3374 22.7888 31.5473 23.7698 33.1481 25.3571L33.2185 25.2861ZM26.8976 22.6888V22.5888C24.401 22.5888 22.1409 23.5919 20.5062 25.2151L20.5767 25.2861L20.6472 25.357C22.2456 23.7698 24.4556 22.7888 26.8976 22.7888V22.6888ZM20.5767 25.2861L20.5063 25.215C18.8694 26.8361 17.8575 29.0777 17.8575 31.5541H17.9575H18.0575C18.0575 29.1334 19.0464 26.9423 20.6471 25.3571L20.5767 25.2861ZM17.9575 31.5541H17.8575C17.8575 33.0906 18.2481 34.5386 18.9398 35.8066L19.0276 35.7587L19.1154 35.7108C18.4393 34.4714 18.0575 33.0563 18.0575 31.5541H17.9575ZM19.0276 35.7587L18.9398 35.8065C19.6548 37.1188 20.6898 38.234 21.9405 39.0467L21.995 38.9629L22.0494 38.879C20.8265 38.0844 19.8144 36.9938 19.1154 35.7108L19.0276 35.7587ZM21.995 38.9629L21.9404 39.0466C22.1561 39.1873 22.3212 39.3618 22.4284 39.5589L22.5163 39.5112L22.6041 39.4634C22.4792 39.2336 22.2897 39.0356 22.0496 38.8791L21.995 38.9629ZM22.5163 39.5112L22.4286 39.5592C22.4772 39.648 22.5146 39.7432 22.5423 39.8434L22.6387 39.8167L22.735 39.7901C22.7037 39.6768 22.6608 39.5669 22.604 39.4631L22.5163 39.5112ZM22.6387 39.8167L22.6126 39.7202C22.2872 39.8082 22.0077 40.0083 21.7975 40.281L21.8767 40.342L21.956 40.4031C22.1426 40.1609 22.3865 39.9885 22.6648 39.9133L22.6387 39.8167ZM21.8767 40.342L21.7975 40.2811C21.5536 40.5983 21.4053 41.0196 21.4053 41.4722H21.5053H21.6053C21.6053 41.0625 21.7398 40.6843 21.956 40.403L21.8767 40.342ZM21.5053 41.4722H21.4053V41.5161H21.5053H21.6053V41.4722H21.5053ZM21.5053 41.5161H21.4053C21.4053 41.9685 21.5535 42.3921 21.7977 42.7075L21.8767 42.6463L21.9558 42.5851C21.7399 42.3061 21.6053 41.926 21.6053 41.5161H21.5053ZM21.8767 42.6463L21.7975 42.7073C22.0211 42.9978 22.3232 43.2048 22.6714 43.2838L22.6935 43.1863L22.7156 43.0887C22.418 43.0212 22.1545 42.8432 21.956 42.5853L21.8767 42.6463ZM22.6935 43.1863H22.5935V43.3432H22.6935H22.7935V43.1863H22.6935ZM22.6935 43.3432H22.5935C22.5935 43.9568 22.9181 44.4913 23.4285 44.86L23.4871 44.7789L23.5456 44.6979C23.0767 44.3591 22.7935 43.8806 22.7935 43.3432H22.6935ZM23.4871 44.7789L23.4283 44.8598C23.684 45.0456 23.9909 45.1888 24.3269 45.2774L24.3524 45.1808L24.3779 45.0841C24.0638 45.0011 23.7798 44.868 23.5459 44.698L23.4871 44.7789ZM24.3524 45.1808L24.2546 45.2013C24.3558 45.6838 24.6001 46.1154 24.9381 46.4528L25.0088 46.3821L25.0794 46.3113C24.7675 45.9999 24.5432 45.6027 24.4503 45.1602L24.3524 45.1808ZM25.0088 46.3821L24.9384 46.4531C25.3932 46.9041 26.0197 47.1832 26.7119 47.1832V47.0832V46.9832C26.0746 46.9832 25.4981 46.7265 25.0792 46.3111L25.0088 46.3821ZM26.7119 47.0832V47.1832H27.1172V47.0832V46.9832H26.7119V47.0832ZM27.1172 47.0832V47.1832C27.8094 47.1832 28.4359 46.9041 28.8907 46.4531L28.8203 46.3821L28.7499 46.3111C28.331 46.7265 27.7546 46.9832 27.1172 46.9832V47.0832ZM28.8203 46.3821L28.8907 46.4531C29.2313 46.1153 29.4732 45.6836 29.5744 45.2013L29.4765 45.1808L29.3786 45.1602C29.2857 45.603 29.0636 46 28.7499 46.3111L28.8203 46.3821ZM25.9287 45.277L25.8495 45.3381C25.8782 45.3753 25.9117 45.4159 25.9514 45.4528L26.0195 45.3796L26.0876 45.3064C26.0598 45.2805 26.0341 45.2499 26.0079 45.216L25.9287 45.277ZM26.0195 45.3796L25.9491 45.4506C26.144 45.6439 26.4159 45.7663 26.7117 45.7663V45.6663V45.5663C26.4715 45.5663 26.2495 45.4668 26.0899 45.3086L26.0195 45.3796ZM26.7117 45.6663V45.7663H27.1169V45.6663V45.5663H26.7117V45.6663ZM27.1169 45.6663V45.7663C27.4145 45.7663 27.6846 45.6463 27.88 45.4502L27.8091 45.3796L27.7383 45.309C27.5792 45.4687 27.3597 45.5663 27.1169 45.5663V45.6663ZM27.8091 45.3796L27.8796 45.4506C27.9142 45.4163 27.9488 45.3774 27.9791 45.3381L27.8999 45.277L27.8207 45.216C27.7961 45.2479 27.7674 45.2801 27.7387 45.3086L27.8091 45.3796ZM27.8999 45.277V45.177H25.9287V45.277V45.377H27.8999V45.277ZM24.1221 43.2176H24.0221V43.3432H24.1221H24.2221V43.2176H24.1221ZM24.1221 43.3432H24.0221C24.0221 43.4933 24.1344 43.624 24.2625 43.7203L24.3226 43.6404L24.3827 43.5605C24.266 43.4726 24.2221 43.394 24.2221 43.3432H24.1221ZM24.3226 43.6404L24.2644 43.7217C24.4742 43.872 24.7699 43.9622 25.1014 43.9622V43.8622V43.7622C24.8039 43.7622 24.5509 43.6809 24.3808 43.5591L24.3226 43.6404ZM25.1014 43.8622V43.9622H28.723V43.8622V43.7622H25.1014V43.8622ZM28.723 43.8622V43.9622C29.0564 43.9622 29.3524 43.8721 29.5605 43.7214L29.5018 43.6404L29.4431 43.5594C29.2756 43.6808 29.0228 43.7622 28.723 43.7622V43.8622ZM29.5018 43.6404L29.5604 43.7214C29.6924 43.626 29.8044 43.4932 29.8044 43.3432H29.7044H29.6044C29.6044 43.3941 29.5602 43.4748 29.4432 43.5593L29.5018 43.6404ZM29.7044 43.3432H29.8044V43.2176H29.7044H29.6044V43.3432H29.7044ZM29.7044 43.2176V43.1176H24.1221V43.2176V43.3176H29.7044V43.2176ZM24.0862 39.7707V39.8707H29.7064V39.7707V39.6707H24.0862V39.7707ZM29.7064 39.7707L29.8051 39.7864C29.8561 39.4668 29.958 39.1657 30.1088 38.8869L30.0208 38.8394L29.9329 38.7918C29.7712 39.0907 29.6621 39.4133 29.6076 39.7549L29.7064 39.7707ZM30.0208 38.8394L30.1087 38.8871C30.3304 38.4797 30.6564 38.1297 31.0695 37.8599L31.0148 37.7762L30.9602 37.6924C30.5207 37.9794 30.1713 38.3535 29.933 38.7916L30.0208 38.8394ZM31.0148 37.7762L31.0693 37.86C32.1236 37.1751 32.9962 36.2377 33.5953 35.1346L33.5074 35.0869L33.4195 35.0391C32.8366 36.1125 31.9871 37.0253 30.9604 37.6923L31.0148 37.7762ZM33.5074 35.0869L33.5952 35.1347C34.175 34.0719 34.5044 32.8499 34.5044 31.552H34.4044H34.3044C34.3044 32.8158 33.9837 34.0048 33.4196 35.039L33.5074 35.0869ZM34.4044 31.552H34.5044C34.5044 29.4669 33.6529 27.579 32.2756 26.2133L32.2052 26.2843L32.1348 26.3553C33.4759 27.6851 34.3044 29.5226 34.3044 31.552H34.4044ZM32.2052 26.2843L32.2756 26.2133C30.8984 24.8476 28.995 24.0035 26.8952 24.0035V24.1035V24.2035C28.9404 24.2035 30.7937 25.0254 32.1348 26.3553L32.2052 26.2843ZM26.8952 24.1035V24.0035C24.7932 24.0035 22.8919 24.8476 21.5147 26.2133L21.5851 26.2843L21.6555 26.3553C22.9966 25.0254 24.8479 24.2035 26.8952 24.2035V24.1035ZM21.5851 26.2843L21.5147 26.2133C20.1374 27.579 19.286 29.4669 19.286 31.552H19.386H19.486C19.486 29.5226 20.3145 27.6851 21.6555 26.3553L21.5851 26.2843ZM19.386 31.552H19.286C19.286 32.8499 19.6154 34.0697 20.1951 35.1347L20.2829 35.0869L20.3708 35.039C19.8066 34.0027 19.486 32.8157 19.486 31.552H19.386ZM20.2829 35.0869L20.1951 35.1347C20.7962 36.2377 21.6667 37.1751 22.721 37.86L22.7755 37.7762L22.83 37.6923C21.8033 37.0253 20.9558 36.1126 20.3708 35.039L20.2829 35.0869ZM22.7755 37.7762L22.721 37.86C23.136 38.1296 23.46 38.4795 23.684 38.8875L23.7717 38.8394L23.8593 38.7912C23.619 38.3536 23.2719 37.9794 22.83 37.6923L22.7755 37.7762ZM23.7717 38.8394L23.6837 38.8869C23.8345 39.1657 23.9365 39.4668 23.9875 39.7864L24.0862 39.7707L24.185 39.7549C24.1305 39.4133 24.0212 39.0906 23.8596 38.7918L23.7717 38.8394ZM30.8102 41.1875V41.0875H30.7996V41.1875V41.2875H30.8102V41.1875ZM30.7912 41.1938L30.8226 41.2888C30.8207 41.2894 30.8203 41.2894 30.8311 41.2874C30.8323 41.2871 30.8362 41.2864 30.8403 41.2854C30.8415 41.2851 30.8478 41.2836 30.8552 41.2805C30.8577 41.2794 30.8688 41.2749 30.8805 41.2652C30.8873 41.2596 30.935 41.2172 30.9105 41.1526C30.9011 41.1276 30.8845 41.1134 30.8758 41.107C30.8664 41.1002 30.858 41.0965 30.8534 41.0948C30.8444 41.0912 30.8368 41.0898 30.8342 41.0893C30.828 41.0882 30.8229 41.0879 30.8213 41.0878C30.817 41.0876 30.8129 41.0875 30.8102 41.0875V41.1875V41.2875C30.8122 41.2875 30.8114 41.2876 30.8094 41.2875C30.8089 41.2874 30.8046 41.2872 30.7989 41.2862C30.7966 41.2858 30.7892 41.2844 30.7803 41.2809C30.7759 41.2792 30.7674 41.2755 30.7582 41.2688C30.7494 41.2624 30.7329 41.2482 30.7235 41.2233C30.699 41.1587 30.7466 41.1164 30.7533 41.1109C30.765 41.1013 30.776 41.0968 30.7783 41.0958C30.7853 41.0929 30.791 41.0916 30.7914 41.0914C30.7939 41.0908 30.7955 41.0906 30.794 41.0908C30.7937 41.0909 30.7743 41.0941 30.7598 41.0989L30.7912 41.1938ZM30.7996 41.1875V41.0875H22.9929V41.1875V41.2875H30.7996V41.1875ZM23.0014 41.1938L22.9569 41.2834C22.9629 41.2864 22.9536 41.2824 22.9447 41.2753C22.9415 41.2727 22.9219 41.2576 22.9128 41.2286C22.9074 41.2114 22.9062 41.1912 22.9124 41.1706C22.9183 41.1511 22.9288 41.1374 22.9373 41.1291L23.0077 41.2001L23.0781 41.2711C23.0871 41.2622 23.098 41.2481 23.104 41.228C23.1103 41.2069 23.1091 41.1861 23.1036 41.1685C23.0941 41.1384 23.0737 41.1223 23.069 41.1186C23.0617 41.1128 23.055 41.1091 23.0524 41.1077C23.0494 41.106 23.0464 41.1045 23.0458 41.1042L23.0014 41.1938ZM23.0077 41.2001L22.9283 41.1393C22.8647 41.2224 22.8317 41.3423 22.8317 41.4722H22.9317H23.0317C23.0317 41.3719 23.0578 41.2992 23.0871 41.2609L23.0077 41.2001ZM22.9317 41.4722H22.8317V41.5161H22.9317H23.0317V41.4722H22.9317ZM22.9317 41.5161H22.8317C22.8317 41.646 22.8647 41.7659 22.9283 41.8489L23.0077 41.7882L23.0871 41.7274C23.0578 41.6891 23.0317 41.6164 23.0317 41.5161H22.9317ZM23.0077 41.7882L22.9373 41.8592C22.9288 41.8508 22.9183 41.8372 22.9124 41.8177C22.9062 41.7971 22.9074 41.7768 22.9128 41.7597C22.9219 41.7307 22.9415 41.7156 22.9448 41.713C22.9536 41.7059 22.9629 41.7019 22.9569 41.7049L23.0014 41.7945L23.0458 41.8841C23.0464 41.8837 23.0494 41.8823 23.0524 41.8806C23.055 41.8792 23.0617 41.8755 23.069 41.8697C23.0737 41.866 23.0941 41.8499 23.1036 41.8198C23.1091 41.8021 23.1103 41.7814 23.104 41.7603C23.098 41.7402 23.0871 41.7261 23.0781 41.7172L23.0077 41.7882ZM22.9929 41.8007V41.9007H30.7996V41.8007V41.7007H22.9929V41.8007ZM30.7912 41.7945L30.8226 41.6995C30.8238 41.6999 30.8272 41.7011 30.8316 41.7033C30.8353 41.7051 30.8451 41.7102 30.8553 41.7203C30.8656 41.7306 30.8841 41.7541 30.8841 41.7898C30.8841 41.8254 30.8656 41.8489 30.8553 41.8592L30.7848 41.7882L30.7144 41.7172C30.703 41.7285 30.6841 41.753 30.6841 41.7898C30.6841 41.8265 30.703 41.851 30.7144 41.8623C30.7335 41.8813 30.7558 41.8881 30.7598 41.8894L30.7912 41.7945ZM30.7848 41.7882L30.8643 41.8489C30.9278 41.7659 30.9608 41.646 30.9608 41.5161H30.8608H30.7608C30.7608 41.6164 30.7347 41.6891 30.7054 41.7274L30.7848 41.7882ZM30.8608 41.5161H30.9608V41.4722H30.8608H30.7608V41.5161H30.8608ZM30.8608 41.4722H30.9608C30.9608 41.3423 30.9278 41.2224 30.8643 41.1393L30.7848 41.2001L30.7054 41.2609C30.7347 41.2992 30.7608 41.3719 30.7608 41.4722H30.8608ZM30.7848 41.2001L30.8553 41.1291C30.8637 41.1375 30.8743 41.1511 30.8801 41.1706C30.8863 41.1912 30.8851 41.2115 30.8797 41.2286C30.8706 41.2576 30.8511 41.2727 30.8478 41.2753C30.8389 41.2824 30.8296 41.2864 30.8356 41.2834L30.7912 41.1938L30.7468 41.1042C30.7461 41.1045 30.7432 41.106 30.7401 41.1077C30.7375 41.1091 30.7308 41.1128 30.7235 41.1186C30.7189 41.1223 30.6984 41.1384 30.689 41.1685C30.6834 41.1861 30.6822 41.2069 30.6885 41.228C30.6945 41.248 30.7055 41.2622 30.7144 41.2711L30.7848 41.2001ZM22.9929 41.1875V41.0875H22.9824V41.1875V41.2875H22.9929V41.1875ZM22.9824 41.1875V41.0875C22.9799 41.0875 22.9756 41.0876 22.971 41.0879C22.9695 41.088 22.9632 41.0884 22.9556 41.09C22.9527 41.0906 22.9424 41.0929 22.9304 41.0991C22.9256 41.1016 22.8764 41.1269 22.8764 41.1879C22.8764 41.2164 22.8882 41.2372 22.8968 41.2485C22.9052 41.2595 22.9141 41.2664 22.9188 41.2697C22.9282 41.2763 22.9366 41.2798 22.9392 41.2808C22.9457 41.2835 22.9512 41.2849 22.9526 41.2852C22.9564 41.2862 22.9601 41.287 22.9613 41.2872C22.9713 41.2892 22.9713 41.2892 22.97 41.2888L23.0014 41.1938L23.0327 41.0989C23.0188 41.0943 23.0008 41.0911 23.0002 41.091C22.9988 41.0907 23.0003 41.091 23.0027 41.0916C23.0032 41.0918 23.0081 41.093 23.0143 41.0955C23.0167 41.0964 23.0249 41.0998 23.0342 41.1064C23.0389 41.1097 23.0477 41.1164 23.0561 41.1275C23.0646 41.1387 23.0764 41.1595 23.0764 41.1879C23.0764 41.2489 23.0273 41.2741 23.0226 41.2766C23.0108 41.2827 23.0006 41.2849 22.9979 41.2855C22.9908 41.287 22.9852 41.2874 22.9846 41.2874C22.982 41.2876 22.9806 41.2875 22.9824 41.2875V41.1875ZM30.8104 41.8007V41.9007C30.8128 41.9007 30.8172 41.9007 30.8218 41.9004C30.8233 41.9003 30.8297 41.8999 30.8375 41.8982C30.8403 41.8976 30.8514 41.8951 30.864 41.8883C30.8702 41.8849 30.9217 41.8559 30.9159 41.7913C30.9134 41.7638 30.9005 41.7449 30.8924 41.7354C30.8842 41.7258 30.876 41.7199 30.8715 41.7169C30.8627 41.711 30.8549 41.708 30.8523 41.707C30.8461 41.7045 30.8409 41.7032 30.8396 41.7029C30.8359 41.702 30.8323 41.7013 30.8311 41.701C30.8211 41.6991 30.8211 41.699 30.8226 41.6995L30.7912 41.7945L30.7598 41.8894C30.7739 41.8941 30.792 41.8972 30.7927 41.8973C30.7941 41.8976 30.7928 41.8974 30.7906 41.8968C30.79 41.8967 30.7854 41.8955 30.7796 41.8933C30.7773 41.8924 30.7697 41.8894 30.7609 41.8836C30.7566 41.8807 30.7484 41.8747 30.7402 41.8651C30.7321 41.8557 30.7192 41.8368 30.7167 41.8093C30.7109 41.7448 30.7624 41.7159 30.7685 41.7126C30.781 41.7058 30.7919 41.7034 30.7945 41.7028C30.8018 41.7012 30.8076 41.7009 30.8081 41.7009C30.8108 41.7007 30.8122 41.7007 30.8104 41.7007V41.8007ZM30.7996 41.8007L30.7997 41.9007L30.8105 41.9007L30.8104 41.8007L30.8103 41.7007L30.7995 41.7007L30.7996 41.8007ZM22.9826 41.8007L22.9825 41.9007L22.9928 41.9007L22.9929 41.8007L22.993 41.7007L22.9828 41.7007L22.9826 41.8007ZM23.0014 41.7945L22.97 41.6995C22.9712 41.6991 22.9713 41.6991 22.9613 41.7011C22.9601 41.7014 22.9563 41.7021 22.9523 41.7032C22.951 41.7035 22.9452 41.705 22.9383 41.7079C22.9356 41.709 22.9264 41.7129 22.9164 41.7205C22.913 41.7231 22.8713 41.7534 22.8772 41.8106C22.883 41.8671 22.9292 41.8885 22.9328 41.8902C22.9439 41.8957 22.9535 41.8978 22.9564 41.8984C22.9637 41.8999 22.9698 41.9003 22.9714 41.9004C22.9759 41.9007 22.9802 41.9007 22.9826 41.9007V41.8007V41.7007C22.9809 41.7007 22.9822 41.7007 22.9848 41.7009C22.9854 41.7009 22.9908 41.7012 22.9976 41.7027C23.0003 41.7032 23.0097 41.7052 23.0207 41.7106C23.0242 41.7123 23.0703 41.7337 23.0761 41.7901C23.082 41.8472 23.0404 41.8775 23.0371 41.88C23.0271 41.8875 23.0181 41.8913 23.0156 41.8923C23.0091 41.8951 23.0039 41.8964 23.0033 41.8965C23.0008 41.8972 22.9992 41.8975 23.0006 41.8972C23.001 41.8971 23.0189 41.894 23.0327 41.8894L23.0014 41.7945ZM29.5505 27.2197L29.6382 27.2676C29.7007 27.1532 29.737 27.0217 29.737 26.8827H29.637H29.537C29.537 26.9866 29.5099 27.0853 29.4627 27.1717L29.5505 27.2197ZM29.637 26.8827H29.737C29.737 26.4355 29.3729 26.0732 28.9215 26.0732V26.1733V26.2733C29.2637 26.2733 29.537 26.5472 29.537 26.8827H29.637ZM28.9215 26.1733V26.0732H26.6991V26.1733V26.2733H28.9215V26.1733ZM26.6991 26.1733H26.5991V26.1774H26.6991H26.7991V26.1733H26.6991ZM26.6991 26.1774V26.0774C26.4131 26.0774 26.1339 26.2298 25.9868 26.4976L26.0745 26.5458L26.1621 26.5939C26.2725 26.3929 26.4829 26.2774 26.6991 26.2774V26.1774ZM26.0745 26.5458L25.9869 26.4974L22.8781 32.123L22.9657 32.1714L23.0532 32.2198L26.162 26.5941L26.0745 26.5458ZM22.9657 32.1714L22.8792 32.1211C22.8066 32.246 22.7683 32.3916 22.7707 32.5434L22.8707 32.5418L22.9707 32.5403C22.9688 32.4241 22.9981 32.3145 23.0521 32.2217L22.9657 32.1714ZM22.8707 32.5418L22.7707 32.5445C22.7828 32.9897 23.1566 33.3402 23.6036 33.3282L23.601 33.2283L23.5983 33.1283C23.2602 33.1373 22.9797 32.8725 22.9707 32.5391L22.8707 32.5418ZM23.601 33.2283L23.6039 33.3282L24.9441 33.2885L24.9411 33.1885L24.9382 33.0885L23.598 33.1283L23.601 33.2283ZM24.9411 33.1885L24.8457 33.1586L23.7926 36.5197L23.888 36.5496L23.9834 36.5795L25.0366 33.2184L24.9411 33.1885ZM23.888 36.5496V36.6496H23.8901V36.5496V36.4496H23.888V36.5496ZM23.8901 36.5496L23.7946 36.5201C23.7053 36.8095 23.785 37.137 24.0257 37.3543L24.0927 37.28L24.1597 37.2058C23.9784 37.0422 23.9187 36.7962 23.9857 36.5791L23.8901 36.5496ZM24.0927 37.28L24.0259 37.3544C24.3581 37.6528 24.8705 37.6265 25.1712 37.2973L25.0974 37.2298L25.0235 37.1624C24.7966 37.4108 24.4098 37.4304 24.1596 37.2056L24.0927 37.28ZM25.0974 37.2298L25.1712 37.2972L30.7957 31.1315L30.7218 31.0641L30.6479 30.9967L25.0235 37.1624L25.0974 37.2298ZM30.7218 31.0641L30.7934 31.134C30.9359 30.9878 31.0202 30.7891 31.0202 30.5723H30.9202H30.8202C30.8202 30.7364 30.7567 30.8851 30.6502 30.9943L30.7218 31.0641ZM30.9202 30.5723L31.0202 30.5718C31.0178 30.1269 30.6537 29.7667 30.2042 29.7691L30.2047 29.8691L30.2053 29.9691C30.5451 29.9673 30.8184 30.2392 30.8202 30.5729L30.9202 30.5723ZM30.2047 29.8691L30.204 29.7691L28.237 29.7838L28.2377 29.8838L28.2385 29.9838L30.2055 29.9691L30.2047 29.8691ZM28.2377 29.8838L28.3274 29.928L29.6402 27.2639L29.5505 27.2197L29.4608 27.1755L28.148 29.8396L28.2377 29.8838ZM26.4543 30.2899L26.5441 30.334L27.8674 27.6362L27.7776 27.5922L27.6878 27.5482L26.3645 30.2459L26.4543 30.2899ZM27.7776 27.5922V27.4922H27.117V27.5922V27.6922H27.7776V27.5922ZM27.117 27.5922L27.0294 27.5438L24.7142 31.7337L24.8017 31.7821L24.8892 31.8305L27.2045 27.6406L27.117 27.5922ZM24.8017 31.7821L24.8047 31.8821L25.8684 31.8507L25.8654 31.7507L25.8625 31.6508L24.7988 31.6821L24.8017 31.7821ZM25.8654 31.7507L25.8727 31.8504C25.9461 31.8451 26.0208 31.8539 26.0972 31.876L26.125 31.78L26.1529 31.684C26.0562 31.6559 25.9578 31.6437 25.8582 31.651L25.8654 31.7507ZM26.125 31.78L26.0957 31.8756C26.4192 31.9747 26.5996 32.3146 26.5002 32.6334L26.5957 32.6632L26.6912 32.6929C26.8239 32.2668 26.5823 31.8155 26.1543 31.6844L26.125 31.78ZM26.5957 32.6632L26.5002 32.6334L26.1098 33.8828L26.2052 33.9126L26.3007 33.9424L26.6911 32.693L26.5957 32.6632ZM26.2052 33.9126L26.2791 33.98L28.6682 31.3618L28.5944 31.2944L28.5205 31.227L26.1314 33.8452L26.2052 33.9126ZM28.5944 31.2944L28.5936 31.1944L27.1563 31.2049L27.1571 31.3049L27.1578 31.4049L28.5951 31.3944L28.5944 31.2944ZM27.1571 31.3049L27.1487 31.2053C27.0409 31.2143 26.9282 31.1961 26.8252 31.1459L26.7814 31.2358L26.7376 31.3257C26.8752 31.3928 27.0242 31.4164 27.1654 31.4046L27.1571 31.3049ZM26.7814 31.2358L26.8252 31.1459C26.5219 30.9983 26.3957 30.6353 26.544 30.3341L26.4543 30.2899L26.3646 30.2458C26.1667 30.6477 26.336 31.1302 26.7376 31.3257L26.7814 31.2358ZM40.5084 12.3142L40.4136 12.2823C40.4094 12.2949 40.4052 12.3074 40.401 12.32L40.4958 12.3519L40.5905 12.3837C40.5948 12.3712 40.599 12.3586 40.6032 12.3461L40.5084 12.3142ZM40.4958 12.3519L40.4018 12.3178L39.4288 14.9987L39.5228 15.0328L39.6168 15.0669L40.5898 12.386L40.4958 12.3519ZM39.5228 15.0328L39.5596 15.1258C42.6018 13.9233 44.5227 12.2752 45.2877 10.1697L45.1937 10.1355L45.0997 10.1014C44.3621 12.1315 42.501 13.7481 39.486 14.9398L39.5228 15.0328ZM45.1937 10.1355L45.2877 10.1698C45.6097 9.28623 45.7291 8.31759 45.6544 7.26332L45.5546 7.27039L45.4549 7.27746C45.5279 8.30778 45.4109 9.24778 45.0998 10.1013L45.1937 10.1355ZM45.5546 7.27039L45.5177 7.17745L41.7589 8.66968L41.7958 8.76263L41.8327 8.85557L45.5915 7.36334L45.5546 7.27039ZM41.7958 8.76263L41.7018 8.72855L40.4144 12.2801L40.5084 12.3142L40.6024 12.3483L41.8898 8.79671L41.7958 8.76263ZM39.0543 12.1531L39.1419 12.1048L36.8266 7.90024L36.739 7.94847L36.6514 7.99671L38.9667 12.2013L39.0543 12.1531ZM36.739 7.94847L36.6413 7.92706C36.2163 9.86629 36.7084 12.0935 38.0951 14.6061L38.1826 14.5578L38.2702 14.5094C36.8963 12.02 36.426 9.84386 36.8367 7.96988L36.739 7.94847ZM38.1826 14.5578L38.2766 14.5918L39.1483 12.1871L39.0543 12.1531L38.9603 12.119L38.0886 14.5237L38.1826 14.5578ZM37.4102 6.22205L37.3225 6.27027L39.6104 10.4267L39.698 10.3785L39.7856 10.3302L37.4978 6.17383L37.4102 6.22205ZM39.698 10.3785L39.792 10.4126L40.6467 8.05602L40.5527 8.02193L40.4587 7.98783L39.604 10.3444L39.698 10.3785ZM40.5527 8.02193L40.6497 8.04637C40.6537 8.03061 40.66 8.01682 40.6724 7.98741L40.5802 7.94868L40.488 7.90994C40.4792 7.93077 40.4644 7.96301 40.4558 7.99748L40.5527 8.02193ZM40.5802 7.94868L40.6742 7.98277L42.8586 1.95961L42.7646 1.92552L42.6706 1.89142L40.4861 7.91458L40.5802 7.94868ZM42.7646 1.92552L42.7228 1.83465C40.0938 3.04258 38.2875 4.48552 37.3233 6.17243L37.4102 6.22205L37.497 6.27168C38.4323 4.63519 40.197 3.21526 42.8063 2.01639L42.7646 1.92552ZM42.4416 6.98387L42.4786 7.0768L45.3763 5.92575L45.3394 5.83281L45.3025 5.73988L42.4047 6.89093L42.4416 6.98387ZM45.3394 5.83281L45.437 5.81115C45.1986 4.73682 44.7841 3.58674 44.1905 2.36113L44.1005 2.40472L44.0105 2.44832C44.5988 3.66294 45.0074 4.79825 45.2418 5.85448L45.3394 5.83281ZM44.1005 2.40472L44.0065 2.37066L42.3476 6.94981L42.4416 6.98387L42.5357 7.01793L44.1945 2.43879L44.1005 2.40472ZM28.2589 12.7831L28.2042 12.6994L21.3576 17.176L21.4123 17.2597L21.4671 17.3434L28.3137 12.8668L28.2589 12.7831ZM21.4123 17.2597L21.3902 17.3572C24.8033 18.132 28.644 17.0298 32.8976 14.0812L32.8406 13.9991L32.7837 13.9169C28.5535 16.8492 24.7708 17.9195 21.4345 17.1622L21.4123 17.2597ZM32.8406 13.9991L32.8663 13.9024L28.2846 12.6864L28.2589 12.7831L28.2333 12.8797L32.815 14.0957L32.8406 13.9991ZM19.6926 16.6946L19.7473 16.7783L26.4734 12.3792L26.4187 12.2955L26.364 12.2118L19.6379 16.611L19.6926 16.6946ZM26.4187 12.2955L26.4444 12.1988L20.9172 10.7296L20.8915 10.8263L20.8658 10.9229L26.393 12.3921L26.4187 12.2955ZM20.8915 10.8263L20.8427 10.739L15.5938 13.6774L15.6427 13.7647L15.6915 13.8519L20.9403 10.9135L20.8915 10.8263ZM15.6427 13.7647L15.5705 13.8339C16.8589 15.1768 18.218 16.1627 19.6527 16.7864L19.6926 16.6946L19.7325 16.6029C18.3264 15.9917 16.9886 15.023 15.7148 13.6954L15.6427 13.7647ZM26.7904 10.9287L26.8797 10.8836L23.2728 3.73853L23.1835 3.78359L23.0943 3.82865L26.7012 10.9737L26.7904 10.9287ZM23.1835 3.78359L23.1945 3.68419C21.6362 3.51296 19.9639 3.69302 18.1725 4.21711L18.2006 4.31308L18.2286 4.40906C19.9998 3.8909 21.6453 3.71517 23.1726 3.88299L23.1835 3.78359ZM18.2006 4.31308L18.1146 4.36422L21.1791 9.51476L21.2651 9.46363L21.351 9.41249L18.2865 4.26195L18.2006 4.31308ZM21.2651 9.46363L21.2394 9.56029L26.7648 11.0253L26.7904 10.9287L26.8161 10.832L21.2907 9.36697L21.2651 9.46363ZM24.9564 4.14363L24.8671 4.18868L28.5373 11.4613L28.6266 11.4162L28.7159 11.3712L25.0457 4.09857L24.9564 4.14363ZM28.6266 11.4162L28.6009 11.5129L33.1829 12.7309L33.2086 12.6342L33.2343 12.5376L28.6523 11.3196L28.6266 11.4162ZM33.2086 12.6342L33.299 12.5916C31.1001 7.92825 28.3325 5.06839 24.9856 4.04798L24.9564 4.14363L24.9272 4.23928C28.1984 5.23659 30.9314 8.03953 33.1181 12.6769L33.2086 12.6342ZM14.6865 12.6828L14.7354 12.77L18.9796 10.3925L18.9308 10.3053L18.8819 10.218L14.6376 12.5955L14.6865 12.6828ZM18.9308 10.3053L18.9565 10.2086L11.9072 8.33552L11.8816 8.43217L11.8559 8.52882L18.9051 10.4019L18.9308 10.3053ZM11.8816 8.43217L11.7937 8.47992C12.6867 10.1231 13.6252 11.5454 14.6092 12.7462L14.6865 12.6828L14.7638 12.6194C13.7893 11.4301 12.8576 10.0187 11.9694 8.38442L11.8816 8.43217ZM19.298 8.93863L19.3839 8.88749L16.9062 4.7248L16.8203 4.77595L16.7344 4.8271L19.2121 8.98978L19.298 8.93863ZM16.8203 4.77595L16.7849 4.68241C15.328 5.23335 13.7986 6.00027 12.1967 6.98022L12.2489 7.06552L12.3011 7.15082C13.8945 6.17606 15.4127 5.41517 16.8557 4.86948L16.8203 4.77595ZM12.2489 7.06552L12.2232 7.16217L19.2723 9.03528L19.298 8.93863L19.3237 8.84199L12.2746 6.96887L12.2489 7.06552Z" fill="#2BAAE1" mask="url(#path-1-inside-1_2_13298)"/>
</svg>
